%TF.GenerationSoftware,KiCad,Pcbnew,9.0.1*%
%TF.CreationDate,2025-05-19T14:00:57+02:00*%
%TF.ProjectId,1A_S6_Projet,31415f53-365f-4507-926f-6a65742e6b69,rev?*%
%TF.SameCoordinates,Original*%
%TF.FileFunction,Soldermask,Bot*%
%TF.FilePolarity,Negative*%
%FSLAX46Y46*%
G04 Gerber Fmt 4.6, Leading zero omitted, Abs format (unit mm)*
G04 Created by KiCad (PCBNEW 9.0.1) date 2025-05-19 14:00:57*
%MOMM*%
%LPD*%
G01*
G04 APERTURE LIST*
G04 Aperture macros list*
%AMRoundRect*
0 Rectangle with rounded corners*
0 $1 Rounding radius*
0 $2 $3 $4 $5 $6 $7 $8 $9 X,Y pos of 4 corners*
0 Add a 4 corners polygon primitive as box body*
4,1,4,$2,$3,$4,$5,$6,$7,$8,$9,$2,$3,0*
0 Add four circle primitives for the rounded corners*
1,1,$1+$1,$2,$3*
1,1,$1+$1,$4,$5*
1,1,$1+$1,$6,$7*
1,1,$1+$1,$8,$9*
0 Add four rect primitives between the rounded corners*
20,1,$1+$1,$2,$3,$4,$5,0*
20,1,$1+$1,$4,$5,$6,$7,0*
20,1,$1+$1,$6,$7,$8,$9,0*
20,1,$1+$1,$8,$9,$2,$3,0*%
G04 Aperture macros list end*
%ADD10RoundRect,0.250000X0.600000X0.725000X-0.600000X0.725000X-0.600000X-0.725000X0.600000X-0.725000X0*%
%ADD11O,1.700000X1.950000*%
%ADD12C,5.600000*%
%ADD13R,1.600000X1.600000*%
%ADD14O,1.600000X1.600000*%
%ADD15RoundRect,0.250000X-0.600000X-0.725000X0.600000X-0.725000X0.600000X0.725000X-0.600000X0.725000X0*%
%ADD16RoundRect,0.250000X0.600000X0.750000X-0.600000X0.750000X-0.600000X-0.750000X0.600000X-0.750000X0*%
%ADD17O,1.700000X2.000000*%
G04 APERTURE END LIST*
D10*
%TO.C,J4*%
X140580000Y-64540000D03*
D11*
X138080000Y-64540000D03*
X135580000Y-64540000D03*
X133080000Y-64540000D03*
%TD*%
D12*
%TO.C,H3*%
X176580000Y-113540000D03*
%TD*%
D13*
%TO.C,A1*%
X164380000Y-84840000D03*
D14*
X164380000Y-87380000D03*
X164380000Y-89920000D03*
X164380000Y-92460000D03*
X164380000Y-95000000D03*
X164380000Y-97540000D03*
X164380000Y-100080000D03*
X164380000Y-102620000D03*
X177080000Y-102620000D03*
X177080000Y-100080000D03*
X177080000Y-97540000D03*
X177080000Y-95000000D03*
X177080000Y-92460000D03*
X177080000Y-89920000D03*
X177080000Y-87380000D03*
X177080000Y-84840000D03*
%TD*%
D12*
%TO.C,H2*%
X176580000Y-62040000D03*
%TD*%
%TO.C,H1*%
X125080000Y-62040000D03*
%TD*%
D10*
%TO.C,J2*%
X153580000Y-64540000D03*
D11*
X151080000Y-64540000D03*
X148580000Y-64540000D03*
%TD*%
D13*
%TO.C,A2*%
X124380000Y-83040000D03*
D14*
X124380000Y-85580000D03*
X124380000Y-88120000D03*
X124380000Y-90660000D03*
X124380000Y-93200000D03*
X124380000Y-95740000D03*
X124380000Y-98280000D03*
X124380000Y-100820000D03*
X137080000Y-100820000D03*
X137080000Y-98280000D03*
X137080000Y-95740000D03*
X137080000Y-93200000D03*
X137080000Y-90660000D03*
X137080000Y-88120000D03*
X137080000Y-85580000D03*
X137080000Y-83040000D03*
%TD*%
D15*
%TO.C,J6*%
X168080000Y-78540000D03*
D11*
X170580000Y-78540000D03*
X173080000Y-78540000D03*
X175580000Y-78540000D03*
%TD*%
D15*
%TO.C,J7*%
X126000000Y-77000000D03*
D11*
X128500000Y-77000000D03*
X131000000Y-77000000D03*
X133500000Y-77000000D03*
%TD*%
D15*
%TO.C,J1*%
X149080000Y-110540000D03*
D11*
X151580000Y-110540000D03*
X154080000Y-110540000D03*
%TD*%
D16*
%TO.C,J8*%
X164580000Y-64540000D03*
D17*
X162080000Y-64540000D03*
%TD*%
D12*
%TO.C,H4*%
X125080000Y-113540000D03*
%TD*%
M02*
