%TF.GenerationSoftware,KiCad,Pcbnew,9.0.1*%
%TF.CreationDate,2025-05-19T14:00:57+02:00*%
%TF.ProjectId,1A_S6_Projet,31415f53-365f-4507-926f-6a65742e6b69,rev?*%
%TF.SameCoordinates,Original*%
%TF.FileFunction,Soldermask,Top*%
%TF.FilePolarity,Negative*%
%FSLAX46Y46*%
G04 Gerber Fmt 4.6, Leading zero omitted, Abs format (unit mm)*
G04 Created by KiCad (PCBNEW 9.0.1) date 2025-05-19 14:00:57*
%MOMM*%
%LPD*%
G01*
G04 APERTURE LIST*
G04 Aperture macros list*
%AMRoundRect*
0 Rectangle with rounded corners*
0 $1 Rounding radius*
0 $2 $3 $4 $5 $6 $7 $8 $9 X,Y pos of 4 corners*
0 Add a 4 corners polygon primitive as box body*
4,1,4,$2,$3,$4,$5,$6,$7,$8,$9,$2,$3,0*
0 Add four circle primitives for the rounded corners*
1,1,$1+$1,$2,$3*
1,1,$1+$1,$4,$5*
1,1,$1+$1,$6,$7*
1,1,$1+$1,$8,$9*
0 Add four rect primitives between the rounded corners*
20,1,$1+$1,$2,$3,$4,$5,0*
20,1,$1+$1,$4,$5,$6,$7,0*
20,1,$1+$1,$6,$7,$8,$9,0*
20,1,$1+$1,$8,$9,$2,$3,0*%
G04 Aperture macros list end*
%ADD10RoundRect,0.250000X-0.412500X-0.650000X0.412500X-0.650000X0.412500X0.650000X-0.412500X0.650000X0*%
%ADD11R,2.400000X0.740000*%
%ADD12C,1.000000*%
%ADD13RoundRect,0.150000X-0.512500X-0.150000X0.512500X-0.150000X0.512500X0.150000X-0.512500X0.150000X0*%
%ADD14RoundRect,0.237500X-0.250000X-0.237500X0.250000X-0.237500X0.250000X0.237500X-0.250000X0.237500X0*%
%ADD15R,0.900000X1.000000*%
%ADD16RoundRect,0.237500X-0.237500X0.250000X-0.237500X-0.250000X0.237500X-0.250000X0.237500X0.250000X0*%
%ADD17RoundRect,0.250000X0.600000X0.725000X-0.600000X0.725000X-0.600000X-0.725000X0.600000X-0.725000X0*%
%ADD18O,1.700000X1.950000*%
%ADD19C,5.600000*%
%ADD20RoundRect,0.237500X-0.287500X-0.237500X0.287500X-0.237500X0.287500X0.237500X-0.287500X0.237500X0*%
%ADD21RoundRect,0.250000X-1.950000X-1.000000X1.950000X-1.000000X1.950000X1.000000X-1.950000X1.000000X0*%
%ADD22RoundRect,0.250000X-0.337500X-0.475000X0.337500X-0.475000X0.337500X0.475000X-0.337500X0.475000X0*%
%ADD23R,1.600000X1.600000*%
%ADD24O,1.600000X1.600000*%
%ADD25RoundRect,0.250000X-0.275000X-0.350000X0.275000X-0.350000X0.275000X0.350000X-0.275000X0.350000X0*%
%ADD26RoundRect,0.237500X0.237500X-0.250000X0.237500X0.250000X-0.237500X0.250000X-0.237500X-0.250000X0*%
%ADD27RoundRect,0.250000X0.412500X0.650000X-0.412500X0.650000X-0.412500X-0.650000X0.412500X-0.650000X0*%
%ADD28RoundRect,0.250000X-0.600000X-0.725000X0.600000X-0.725000X0.600000X0.725000X-0.600000X0.725000X0*%
%ADD29RoundRect,0.237500X0.250000X0.237500X-0.250000X0.237500X-0.250000X-0.237500X0.250000X-0.237500X0*%
%ADD30RoundRect,0.237500X0.287500X0.237500X-0.287500X0.237500X-0.287500X-0.237500X0.287500X-0.237500X0*%
%ADD31R,1.000000X0.900000*%
%ADD32RoundRect,0.075000X-0.700000X-0.075000X0.700000X-0.075000X0.700000X0.075000X-0.700000X0.075000X0*%
%ADD33RoundRect,0.075000X-0.075000X-0.700000X0.075000X-0.700000X0.075000X0.700000X-0.075000X0.700000X0*%
%ADD34RoundRect,0.250000X0.600000X0.750000X-0.600000X0.750000X-0.600000X-0.750000X0.600000X-0.750000X0*%
%ADD35O,1.700000X2.000000*%
G04 APERTURE END LIST*
D10*
%TO.C,C4*%
X160455000Y-107040000D03*
X163580000Y-107040000D03*
%TD*%
D11*
%TO.C,J3*%
X156180000Y-71000000D03*
X160080000Y-71000000D03*
X156180000Y-72270000D03*
X160080000Y-72270000D03*
X156180000Y-73540000D03*
X160080000Y-73540000D03*
X156180000Y-74810000D03*
X160080000Y-74810000D03*
X156180000Y-76080000D03*
X160080000Y-76080000D03*
X156180000Y-77350000D03*
X160080000Y-77350000D03*
X156180000Y-78620000D03*
X160080000Y-78620000D03*
%TD*%
D12*
%TO.C,TP2*%
X151080000Y-69040000D03*
%TD*%
D10*
%TO.C,C12*%
X166937500Y-115000000D03*
X170062500Y-115000000D03*
%TD*%
D13*
%TO.C,U2*%
X154805000Y-101640000D03*
X154805000Y-102590000D03*
X154805000Y-103540000D03*
X157080000Y-103540000D03*
X157080000Y-101640000D03*
%TD*%
D14*
%TO.C,R6*%
X148167500Y-82540000D03*
X149992500Y-82540000D03*
%TD*%
D15*
%TO.C,SW1*%
X142130000Y-71927500D03*
X138030000Y-71927500D03*
X142130000Y-70327500D03*
X138030000Y-70327500D03*
%TD*%
D14*
%TO.C,R10*%
X140755000Y-112540000D03*
X142580000Y-112540000D03*
%TD*%
D12*
%TO.C,TP5*%
X151080000Y-105540000D03*
%TD*%
%TO.C,TP4*%
X134000000Y-71500000D03*
%TD*%
%TO.C,TP6*%
X160080000Y-101540000D03*
%TD*%
D16*
%TO.C,R11*%
X145580000Y-76640000D03*
X145580000Y-78465000D03*
%TD*%
D15*
%TO.C,SW2*%
X147480000Y-76540000D03*
X151580000Y-76540000D03*
X147480000Y-78140000D03*
X151580000Y-78140000D03*
%TD*%
D17*
%TO.C,J4*%
X140580000Y-64540000D03*
D18*
X138080000Y-64540000D03*
X135580000Y-64540000D03*
X133080000Y-64540000D03*
%TD*%
D10*
%TO.C,C10*%
X144455000Y-106140000D03*
X147580000Y-106140000D03*
%TD*%
D19*
%TO.C,H3*%
X176580000Y-113540000D03*
%TD*%
D12*
%TO.C,TP1*%
X144500000Y-113500000D03*
%TD*%
D14*
%TO.C,R2*%
X129175000Y-69000000D03*
X131000000Y-69000000D03*
%TD*%
D20*
%TO.C,D5*%
X153255000Y-81540000D03*
X155005000Y-81540000D03*
%TD*%
D21*
%TO.C,C1*%
X130180000Y-109040000D03*
X137580000Y-109040000D03*
%TD*%
D22*
%TO.C,C5*%
X160980000Y-110040000D03*
X163055000Y-110040000D03*
%TD*%
D14*
%TO.C,R8*%
X141255000Y-80540000D03*
X143080000Y-80540000D03*
%TD*%
D23*
%TO.C,A1*%
X164380000Y-84840000D03*
D24*
X164380000Y-87380000D03*
X164380000Y-89920000D03*
X164380000Y-92460000D03*
X164380000Y-95000000D03*
X164380000Y-97540000D03*
X164380000Y-100080000D03*
X164380000Y-102620000D03*
X177080000Y-102620000D03*
X177080000Y-100080000D03*
X177080000Y-97540000D03*
X177080000Y-95000000D03*
X177080000Y-92460000D03*
X177080000Y-89920000D03*
X177080000Y-87380000D03*
X177080000Y-84840000D03*
%TD*%
D19*
%TO.C,H2*%
X176580000Y-62040000D03*
%TD*%
D10*
%TO.C,C11*%
X166955000Y-112500000D03*
X170080000Y-112500000D03*
%TD*%
D19*
%TO.C,H1*%
X125080000Y-62040000D03*
%TD*%
D25*
%TO.C,L1*%
X160717500Y-113040000D03*
X163017500Y-113040000D03*
%TD*%
D10*
%TO.C,C9*%
X166955000Y-110000000D03*
X170080000Y-110000000D03*
%TD*%
%TO.C,C7*%
X154580000Y-105640000D03*
X157705000Y-105640000D03*
%TD*%
D17*
%TO.C,J2*%
X153580000Y-64540000D03*
D18*
X151080000Y-64540000D03*
X148580000Y-64540000D03*
%TD*%
D23*
%TO.C,A2*%
X124380000Y-83040000D03*
D24*
X124380000Y-85580000D03*
X124380000Y-88120000D03*
X124380000Y-90660000D03*
X124380000Y-93200000D03*
X124380000Y-95740000D03*
X124380000Y-98280000D03*
X124380000Y-100820000D03*
X137080000Y-100820000D03*
X137080000Y-98280000D03*
X137080000Y-95740000D03*
X137080000Y-93200000D03*
X137080000Y-90660000D03*
X137080000Y-88120000D03*
X137080000Y-85580000D03*
X137080000Y-83040000D03*
%TD*%
D14*
%TO.C,R4*%
X153087500Y-84000000D03*
X154912500Y-84000000D03*
%TD*%
%TO.C,R3*%
X129175000Y-71500000D03*
X131000000Y-71500000D03*
%TD*%
D26*
%TO.C,R12*%
X144080000Y-71952500D03*
X144080000Y-70127500D03*
%TD*%
D12*
%TO.C,TP3*%
X134000000Y-69000000D03*
%TD*%
D10*
%TO.C,C6*%
X167017500Y-107040000D03*
X170142500Y-107040000D03*
%TD*%
D12*
%TO.C,TP7*%
X141080000Y-106040000D03*
%TD*%
D27*
%TO.C,C8*%
X152580000Y-102140000D03*
X149455000Y-102140000D03*
%TD*%
D28*
%TO.C,J6*%
X168080000Y-78540000D03*
D18*
X170580000Y-78540000D03*
X173080000Y-78540000D03*
X175580000Y-78540000D03*
%TD*%
D26*
%TO.C,R7*%
X157080000Y-83452500D03*
X157080000Y-81627500D03*
%TD*%
D29*
%TO.C,R1*%
X161080000Y-94040000D03*
X159255000Y-94040000D03*
%TD*%
D30*
%TO.C,D1*%
X161005000Y-92040000D03*
X159255000Y-92040000D03*
%TD*%
D20*
%TO.C,D2*%
X141330000Y-82540000D03*
X143080000Y-82540000D03*
%TD*%
D31*
%TO.C,SW3*%
X160880000Y-81490000D03*
X160880000Y-85590000D03*
X159280000Y-81490000D03*
X159280000Y-85590000D03*
%TD*%
D20*
%TO.C,D4*%
X140830000Y-110040000D03*
X142580000Y-110040000D03*
%TD*%
D32*
%TO.C,U1*%
X144405000Y-88465000D03*
X144405000Y-88965000D03*
X144405000Y-89465000D03*
X144405000Y-89965000D03*
X144405000Y-90465000D03*
X144405000Y-90965000D03*
X144405000Y-91465000D03*
X144405000Y-91965000D03*
X144405000Y-92465000D03*
X144405000Y-92965000D03*
X144405000Y-93465000D03*
X144405000Y-93965000D03*
X144405000Y-94465000D03*
X144405000Y-94965000D03*
X144405000Y-95465000D03*
X144405000Y-95965000D03*
D33*
X146330000Y-97890000D03*
X146830000Y-97890000D03*
X147330000Y-97890000D03*
X147830000Y-97890000D03*
X148330000Y-97890000D03*
X148830000Y-97890000D03*
X149330000Y-97890000D03*
X149830000Y-97890000D03*
X150330000Y-97890000D03*
X150830000Y-97890000D03*
X151330000Y-97890000D03*
X151830000Y-97890000D03*
X152330000Y-97890000D03*
X152830000Y-97890000D03*
X153330000Y-97890000D03*
X153830000Y-97890000D03*
D32*
X155755000Y-95965000D03*
X155755000Y-95465000D03*
X155755000Y-94965000D03*
X155755000Y-94465000D03*
X155755000Y-93965000D03*
X155755000Y-93465000D03*
X155755000Y-92965000D03*
X155755000Y-92465000D03*
X155755000Y-91965000D03*
X155755000Y-91465000D03*
X155755000Y-90965000D03*
X155755000Y-90465000D03*
X155755000Y-89965000D03*
X155755000Y-89465000D03*
X155755000Y-88965000D03*
X155755000Y-88465000D03*
D33*
X153830000Y-86540000D03*
X153330000Y-86540000D03*
X152830000Y-86540000D03*
X152330000Y-86540000D03*
X151830000Y-86540000D03*
X151330000Y-86540000D03*
X150830000Y-86540000D03*
X150330000Y-86540000D03*
X149830000Y-86540000D03*
X149330000Y-86540000D03*
X148830000Y-86540000D03*
X148330000Y-86540000D03*
X147830000Y-86540000D03*
X147330000Y-86540000D03*
X146830000Y-86540000D03*
X146330000Y-86540000D03*
%TD*%
D28*
%TO.C,J7*%
X126000000Y-77000000D03*
D18*
X128500000Y-77000000D03*
X131000000Y-77000000D03*
X133500000Y-77000000D03*
%TD*%
D13*
%TO.C,U4*%
X144362500Y-102050000D03*
X144362500Y-103000000D03*
X144362500Y-103950000D03*
X146637500Y-103950000D03*
X146637500Y-102050000D03*
%TD*%
D28*
%TO.C,J1*%
X149080000Y-110540000D03*
D18*
X151580000Y-110540000D03*
X154080000Y-110540000D03*
%TD*%
D34*
%TO.C,J8*%
X164580000Y-64540000D03*
D35*
X162080000Y-64540000D03*
%TD*%
D19*
%TO.C,H4*%
X125080000Y-113540000D03*
%TD*%
D21*
%TO.C,C2*%
X169180000Y-70540000D03*
X176580000Y-70540000D03*
%TD*%
M02*
