M48
; DRILL file {KiCad 9.0.1} date 2025-05-19T14:01:01+0200
; FORMAT={-:-/ absolute / metric / decimal}
; #@! TF.CreationDate,2025-05-19T14:01:01+02:00
; #@! TF.GenerationSoftware,Kicad,Pcbnew,9.0.1
; #@! TF.FileFunction,Plated,1,2,PTH
FMAT,2
METRIC
; #@! TA.AperFunction,Plated,PTH,ViaDrill
T1C0.400
; #@! TA.AperFunction,Plated,PTH,ComponentDrill
T2C0.800
; #@! TA.AperFunction,Plated,PTH,ComponentDrill
T3C0.950
; #@! TA.AperFunction,Plated,PTH,ComponentDrill
T4C1.000
; #@! TA.AperFunction,Plated,PTH,ComponentDrill
T5C3.200
%
G90
G05
T1
X126.0Y-67.0
X128.0Y-68.0
X131.5Y-98.0
X131.5Y-101.5
X131.75Y-106.25
X132.201Y-88.201
X132.5Y-90.5
X133.0Y-107.5
X134.0Y-92.0
X134.5Y-73.5
X136.5Y-71.5
X139.47Y-85.53
X139.5Y-87.5
X139.5Y-90.0
X139.5Y-93.5
X140.0Y-98.0
X140.0Y-102.5
X140.311Y-91.811
X140.89Y-99.55
X141.0Y-89.5
X142.0Y-73.5
X142.5Y-86.0
X142.5Y-89.5
X142.5Y-94.0
X142.5Y-102.5
X142.58Y-105.04
X142.58Y-107.04
X143.25Y-87.0
X143.5Y-77.0
X144.5Y-100.25
X145.0Y-84.5
X145.5Y-72.0
X146.0Y-82.0
X146.0Y-95.0
X146.5Y-84.5
X146.931Y-88.714
X146.965Y-93.965
X147.0Y-96.5
X147.5Y-67.5
X147.75Y-101.25
X148.0Y-102.5
X148.003Y-99.501
X148.061Y-92.939
X149.5Y-84.5
X149.5Y-106.5
X149.993Y-77.39
X149.993Y-79.0
X150.0Y-67.5
X150.44Y-99.831
X150.5Y-70.5
X150.5Y-93.714
X150.774Y-100.774
X151.0Y-96.5
X151.25Y-82.75
X151.589Y-72.608
X152.0Y-85.0
X152.0Y-88.0
X153.5Y-89.5
X153.5Y-108.0
X154.0Y-76.5
X154.005Y-82.5
X154.25Y-91.25
X154.387Y-96.715
X154.5Y-68.5
X155.0Y-100.56
X155.819Y-99.5
X155.908Y-83.342
X156.0Y-105.5
X156.0Y-111.5
X156.496Y-102.537
X156.5Y-80.5
X156.79Y-114.79
X157.83Y-111.5
X158.0Y-95.215
X158.5Y-83.453
X158.5Y-84.5
X158.5Y-90.5
X158.54Y-113.04
X158.75Y-96.75
X159.715Y-97.215
X160.215Y-95.0
X160.25Y-83.453
X160.28Y-103.72
X161.0Y-82.5
X161.0Y-84.5
X161.467Y-87.587
X161.5Y-105.251
X162.0Y-81.5
X162.0Y-102.0
X162.5Y-72.0
X162.5Y-75.0
X164.0Y-111.25
X164.5Y-81.5
X164.623Y-115.39
X164.9Y-113.69
X165.0Y-105.0
X165.0Y-107.5
X167.0Y-103.5
X167.01Y-89.07
X167.5Y-105.0
X168.08Y-88.0
X168.5Y-110.5
X168.78Y-90.84
X169.487Y-91.547
X169.84Y-89.78
X170.47Y-92.53
X171.0Y-90.5
X171.452Y-91.392
X172.5Y-93.21
X174.5Y-91.0
X174.5Y-95.0
X175.0Y-88.0
T2
X124.38Y-83.04
X124.38Y-85.58
X124.38Y-88.12
X124.38Y-90.66
X124.38Y-93.2
X124.38Y-95.74
X124.38Y-98.28
X124.38Y-100.82
X137.08Y-83.04
X137.08Y-85.58
X137.08Y-88.12
X137.08Y-90.66
X137.08Y-93.2
X137.08Y-95.74
X137.08Y-98.28
X137.08Y-100.82
X164.38Y-84.84
X164.38Y-87.38
X164.38Y-89.92
X164.38Y-92.46
X164.38Y-95.0
X164.38Y-97.54
X164.38Y-100.08
X164.38Y-102.62
X177.08Y-84.84
X177.08Y-87.38
X177.08Y-89.92
X177.08Y-92.46
X177.08Y-95.0
X177.08Y-97.54
X177.08Y-100.08
X177.08Y-102.62
T3
X126.0Y-77.0
X128.5Y-77.0
X131.0Y-77.0
X133.08Y-64.54
X133.5Y-77.0
X135.58Y-64.54
X138.08Y-64.54
X140.58Y-64.54
X148.58Y-64.54
X149.08Y-110.54
X151.08Y-64.54
X151.58Y-110.54
X153.58Y-64.54
X154.08Y-110.54
X168.08Y-78.54
X170.58Y-78.54
X173.08Y-78.54
X175.58Y-78.54
T4
X162.08Y-64.54
X164.58Y-64.54
T5
X125.08Y-62.04
X125.08Y-113.54
X176.58Y-62.04
X176.58Y-113.54
M30
