%TF.GenerationSoftware,KiCad,Pcbnew,9.0.1*%
%TF.CreationDate,2025-05-19T14:00:56+02:00*%
%TF.ProjectId,1A_S6_Projet,31415f53-365f-4507-926f-6a65742e6b69,rev?*%
%TF.SameCoordinates,Original*%
%TF.FileFunction,Legend,Top*%
%TF.FilePolarity,Positive*%
%FSLAX46Y46*%
G04 Gerber Fmt 4.6, Leading zero omitted, Abs format (unit mm)*
G04 Created by KiCad (PCBNEW 9.0.1) date 2025-05-19 14:00:56*
%MOMM*%
%LPD*%
G01*
G04 APERTURE LIST*
%ADD10C,0.150000*%
%ADD11C,0.120000*%
G04 APERTURE END LIST*
D10*
X161850833Y-105549580D02*
X161803214Y-105597200D01*
X161803214Y-105597200D02*
X161660357Y-105644819D01*
X161660357Y-105644819D02*
X161565119Y-105644819D01*
X161565119Y-105644819D02*
X161422262Y-105597200D01*
X161422262Y-105597200D02*
X161327024Y-105501961D01*
X161327024Y-105501961D02*
X161279405Y-105406723D01*
X161279405Y-105406723D02*
X161231786Y-105216247D01*
X161231786Y-105216247D02*
X161231786Y-105073390D01*
X161231786Y-105073390D02*
X161279405Y-104882914D01*
X161279405Y-104882914D02*
X161327024Y-104787676D01*
X161327024Y-104787676D02*
X161422262Y-104692438D01*
X161422262Y-104692438D02*
X161565119Y-104644819D01*
X161565119Y-104644819D02*
X161660357Y-104644819D01*
X161660357Y-104644819D02*
X161803214Y-104692438D01*
X161803214Y-104692438D02*
X161850833Y-104740057D01*
X162707976Y-104978152D02*
X162707976Y-105644819D01*
X162469881Y-104597200D02*
X162231786Y-105311485D01*
X162231786Y-105311485D02*
X162850833Y-105311485D01*
X157796666Y-68709819D02*
X157796666Y-69424104D01*
X157796666Y-69424104D02*
X157749047Y-69566961D01*
X157749047Y-69566961D02*
X157653809Y-69662200D01*
X157653809Y-69662200D02*
X157510952Y-69709819D01*
X157510952Y-69709819D02*
X157415714Y-69709819D01*
X158177619Y-68709819D02*
X158796666Y-68709819D01*
X158796666Y-68709819D02*
X158463333Y-69090771D01*
X158463333Y-69090771D02*
X158606190Y-69090771D01*
X158606190Y-69090771D02*
X158701428Y-69138390D01*
X158701428Y-69138390D02*
X158749047Y-69186009D01*
X158749047Y-69186009D02*
X158796666Y-69281247D01*
X158796666Y-69281247D02*
X158796666Y-69519342D01*
X158796666Y-69519342D02*
X158749047Y-69614580D01*
X158749047Y-69614580D02*
X158701428Y-69662200D01*
X158701428Y-69662200D02*
X158606190Y-69709819D01*
X158606190Y-69709819D02*
X158320476Y-69709819D01*
X158320476Y-69709819D02*
X158225238Y-69662200D01*
X158225238Y-69662200D02*
X158177619Y-69614580D01*
X147238095Y-69194819D02*
X147809523Y-69194819D01*
X147523809Y-70194819D02*
X147523809Y-69194819D01*
X148142857Y-70194819D02*
X148142857Y-69194819D01*
X148142857Y-69194819D02*
X148523809Y-69194819D01*
X148523809Y-69194819D02*
X148619047Y-69242438D01*
X148619047Y-69242438D02*
X148666666Y-69290057D01*
X148666666Y-69290057D02*
X148714285Y-69385295D01*
X148714285Y-69385295D02*
X148714285Y-69528152D01*
X148714285Y-69528152D02*
X148666666Y-69623390D01*
X148666666Y-69623390D02*
X148619047Y-69671009D01*
X148619047Y-69671009D02*
X148523809Y-69718628D01*
X148523809Y-69718628D02*
X148142857Y-69718628D01*
X149095238Y-69290057D02*
X149142857Y-69242438D01*
X149142857Y-69242438D02*
X149238095Y-69194819D01*
X149238095Y-69194819D02*
X149476190Y-69194819D01*
X149476190Y-69194819D02*
X149571428Y-69242438D01*
X149571428Y-69242438D02*
X149619047Y-69290057D01*
X149619047Y-69290057D02*
X149666666Y-69385295D01*
X149666666Y-69385295D02*
X149666666Y-69480533D01*
X149666666Y-69480533D02*
X149619047Y-69623390D01*
X149619047Y-69623390D02*
X149047619Y-70194819D01*
X149047619Y-70194819D02*
X149666666Y-70194819D01*
X171857142Y-115359580D02*
X171809523Y-115407200D01*
X171809523Y-115407200D02*
X171666666Y-115454819D01*
X171666666Y-115454819D02*
X171571428Y-115454819D01*
X171571428Y-115454819D02*
X171428571Y-115407200D01*
X171428571Y-115407200D02*
X171333333Y-115311961D01*
X171333333Y-115311961D02*
X171285714Y-115216723D01*
X171285714Y-115216723D02*
X171238095Y-115026247D01*
X171238095Y-115026247D02*
X171238095Y-114883390D01*
X171238095Y-114883390D02*
X171285714Y-114692914D01*
X171285714Y-114692914D02*
X171333333Y-114597676D01*
X171333333Y-114597676D02*
X171428571Y-114502438D01*
X171428571Y-114502438D02*
X171571428Y-114454819D01*
X171571428Y-114454819D02*
X171666666Y-114454819D01*
X171666666Y-114454819D02*
X171809523Y-114502438D01*
X171809523Y-114502438D02*
X171857142Y-114550057D01*
X172809523Y-115454819D02*
X172238095Y-115454819D01*
X172523809Y-115454819D02*
X172523809Y-114454819D01*
X172523809Y-114454819D02*
X172428571Y-114597676D01*
X172428571Y-114597676D02*
X172333333Y-114692914D01*
X172333333Y-114692914D02*
X172238095Y-114740533D01*
X173190476Y-114550057D02*
X173238095Y-114502438D01*
X173238095Y-114502438D02*
X173333333Y-114454819D01*
X173333333Y-114454819D02*
X173571428Y-114454819D01*
X173571428Y-114454819D02*
X173666666Y-114502438D01*
X173666666Y-114502438D02*
X173714285Y-114550057D01*
X173714285Y-114550057D02*
X173761904Y-114645295D01*
X173761904Y-114645295D02*
X173761904Y-114740533D01*
X173761904Y-114740533D02*
X173714285Y-114883390D01*
X173714285Y-114883390D02*
X173142857Y-115454819D01*
X173142857Y-115454819D02*
X173761904Y-115454819D01*
X155180595Y-99644819D02*
X155180595Y-100454342D01*
X155180595Y-100454342D02*
X155228214Y-100549580D01*
X155228214Y-100549580D02*
X155275833Y-100597200D01*
X155275833Y-100597200D02*
X155371071Y-100644819D01*
X155371071Y-100644819D02*
X155561547Y-100644819D01*
X155561547Y-100644819D02*
X155656785Y-100597200D01*
X155656785Y-100597200D02*
X155704404Y-100549580D01*
X155704404Y-100549580D02*
X155752023Y-100454342D01*
X155752023Y-100454342D02*
X155752023Y-99644819D01*
X156180595Y-99740057D02*
X156228214Y-99692438D01*
X156228214Y-99692438D02*
X156323452Y-99644819D01*
X156323452Y-99644819D02*
X156561547Y-99644819D01*
X156561547Y-99644819D02*
X156656785Y-99692438D01*
X156656785Y-99692438D02*
X156704404Y-99740057D01*
X156704404Y-99740057D02*
X156752023Y-99835295D01*
X156752023Y-99835295D02*
X156752023Y-99930533D01*
X156752023Y-99930533D02*
X156704404Y-100073390D01*
X156704404Y-100073390D02*
X156132976Y-100644819D01*
X156132976Y-100644819D02*
X156752023Y-100644819D01*
X148913333Y-81564819D02*
X148580000Y-81088628D01*
X148341905Y-81564819D02*
X148341905Y-80564819D01*
X148341905Y-80564819D02*
X148722857Y-80564819D01*
X148722857Y-80564819D02*
X148818095Y-80612438D01*
X148818095Y-80612438D02*
X148865714Y-80660057D01*
X148865714Y-80660057D02*
X148913333Y-80755295D01*
X148913333Y-80755295D02*
X148913333Y-80898152D01*
X148913333Y-80898152D02*
X148865714Y-80993390D01*
X148865714Y-80993390D02*
X148818095Y-81041009D01*
X148818095Y-81041009D02*
X148722857Y-81088628D01*
X148722857Y-81088628D02*
X148341905Y-81088628D01*
X149770476Y-80564819D02*
X149580000Y-80564819D01*
X149580000Y-80564819D02*
X149484762Y-80612438D01*
X149484762Y-80612438D02*
X149437143Y-80660057D01*
X149437143Y-80660057D02*
X149341905Y-80802914D01*
X149341905Y-80802914D02*
X149294286Y-80993390D01*
X149294286Y-80993390D02*
X149294286Y-81374342D01*
X149294286Y-81374342D02*
X149341905Y-81469580D01*
X149341905Y-81469580D02*
X149389524Y-81517200D01*
X149389524Y-81517200D02*
X149484762Y-81564819D01*
X149484762Y-81564819D02*
X149675238Y-81564819D01*
X149675238Y-81564819D02*
X149770476Y-81517200D01*
X149770476Y-81517200D02*
X149818095Y-81469580D01*
X149818095Y-81469580D02*
X149865714Y-81374342D01*
X149865714Y-81374342D02*
X149865714Y-81136247D01*
X149865714Y-81136247D02*
X149818095Y-81041009D01*
X149818095Y-81041009D02*
X149770476Y-80993390D01*
X149770476Y-80993390D02*
X149675238Y-80945771D01*
X149675238Y-80945771D02*
X149484762Y-80945771D01*
X149484762Y-80945771D02*
X149389524Y-80993390D01*
X149389524Y-80993390D02*
X149341905Y-81041009D01*
X149341905Y-81041009D02*
X149294286Y-81136247D01*
X138746667Y-73984700D02*
X138889524Y-74032319D01*
X138889524Y-74032319D02*
X139127619Y-74032319D01*
X139127619Y-74032319D02*
X139222857Y-73984700D01*
X139222857Y-73984700D02*
X139270476Y-73937080D01*
X139270476Y-73937080D02*
X139318095Y-73841842D01*
X139318095Y-73841842D02*
X139318095Y-73746604D01*
X139318095Y-73746604D02*
X139270476Y-73651366D01*
X139270476Y-73651366D02*
X139222857Y-73603747D01*
X139222857Y-73603747D02*
X139127619Y-73556128D01*
X139127619Y-73556128D02*
X138937143Y-73508509D01*
X138937143Y-73508509D02*
X138841905Y-73460890D01*
X138841905Y-73460890D02*
X138794286Y-73413271D01*
X138794286Y-73413271D02*
X138746667Y-73318033D01*
X138746667Y-73318033D02*
X138746667Y-73222795D01*
X138746667Y-73222795D02*
X138794286Y-73127557D01*
X138794286Y-73127557D02*
X138841905Y-73079938D01*
X138841905Y-73079938D02*
X138937143Y-73032319D01*
X138937143Y-73032319D02*
X139175238Y-73032319D01*
X139175238Y-73032319D02*
X139318095Y-73079938D01*
X139651429Y-73032319D02*
X139889524Y-74032319D01*
X139889524Y-74032319D02*
X140080000Y-73318033D01*
X140080000Y-73318033D02*
X140270476Y-74032319D01*
X140270476Y-74032319D02*
X140508572Y-73032319D01*
X141413333Y-74032319D02*
X140841905Y-74032319D01*
X141127619Y-74032319D02*
X141127619Y-73032319D01*
X141127619Y-73032319D02*
X141032381Y-73175176D01*
X141032381Y-73175176D02*
X140937143Y-73270414D01*
X140937143Y-73270414D02*
X140841905Y-73318033D01*
X144357142Y-111954819D02*
X144023809Y-111478628D01*
X143785714Y-111954819D02*
X143785714Y-110954819D01*
X143785714Y-110954819D02*
X144166666Y-110954819D01*
X144166666Y-110954819D02*
X144261904Y-111002438D01*
X144261904Y-111002438D02*
X144309523Y-111050057D01*
X144309523Y-111050057D02*
X144357142Y-111145295D01*
X144357142Y-111145295D02*
X144357142Y-111288152D01*
X144357142Y-111288152D02*
X144309523Y-111383390D01*
X144309523Y-111383390D02*
X144261904Y-111431009D01*
X144261904Y-111431009D02*
X144166666Y-111478628D01*
X144166666Y-111478628D02*
X143785714Y-111478628D01*
X145309523Y-111954819D02*
X144738095Y-111954819D01*
X145023809Y-111954819D02*
X145023809Y-110954819D01*
X145023809Y-110954819D02*
X144928571Y-111097676D01*
X144928571Y-111097676D02*
X144833333Y-111192914D01*
X144833333Y-111192914D02*
X144738095Y-111240533D01*
X145928571Y-110954819D02*
X146023809Y-110954819D01*
X146023809Y-110954819D02*
X146119047Y-111002438D01*
X146119047Y-111002438D02*
X146166666Y-111050057D01*
X146166666Y-111050057D02*
X146214285Y-111145295D01*
X146214285Y-111145295D02*
X146261904Y-111335771D01*
X146261904Y-111335771D02*
X146261904Y-111573866D01*
X146261904Y-111573866D02*
X146214285Y-111764342D01*
X146214285Y-111764342D02*
X146166666Y-111859580D01*
X146166666Y-111859580D02*
X146119047Y-111907200D01*
X146119047Y-111907200D02*
X146023809Y-111954819D01*
X146023809Y-111954819D02*
X145928571Y-111954819D01*
X145928571Y-111954819D02*
X145833333Y-111907200D01*
X145833333Y-111907200D02*
X145785714Y-111859580D01*
X145785714Y-111859580D02*
X145738095Y-111764342D01*
X145738095Y-111764342D02*
X145690476Y-111573866D01*
X145690476Y-111573866D02*
X145690476Y-111335771D01*
X145690476Y-111335771D02*
X145738095Y-111145295D01*
X145738095Y-111145295D02*
X145785714Y-111050057D01*
X145785714Y-111050057D02*
X145833333Y-111002438D01*
X145833333Y-111002438D02*
X145928571Y-110954819D01*
X149738095Y-103454819D02*
X150309523Y-103454819D01*
X150023809Y-104454819D02*
X150023809Y-103454819D01*
X150642857Y-104454819D02*
X150642857Y-103454819D01*
X150642857Y-103454819D02*
X151023809Y-103454819D01*
X151023809Y-103454819D02*
X151119047Y-103502438D01*
X151119047Y-103502438D02*
X151166666Y-103550057D01*
X151166666Y-103550057D02*
X151214285Y-103645295D01*
X151214285Y-103645295D02*
X151214285Y-103788152D01*
X151214285Y-103788152D02*
X151166666Y-103883390D01*
X151166666Y-103883390D02*
X151119047Y-103931009D01*
X151119047Y-103931009D02*
X151023809Y-103978628D01*
X151023809Y-103978628D02*
X150642857Y-103978628D01*
X152119047Y-103454819D02*
X151642857Y-103454819D01*
X151642857Y-103454819D02*
X151595238Y-103931009D01*
X151595238Y-103931009D02*
X151642857Y-103883390D01*
X151642857Y-103883390D02*
X151738095Y-103835771D01*
X151738095Y-103835771D02*
X151976190Y-103835771D01*
X151976190Y-103835771D02*
X152071428Y-103883390D01*
X152071428Y-103883390D02*
X152119047Y-103931009D01*
X152119047Y-103931009D02*
X152166666Y-104026247D01*
X152166666Y-104026247D02*
X152166666Y-104264342D01*
X152166666Y-104264342D02*
X152119047Y-104359580D01*
X152119047Y-104359580D02*
X152071428Y-104407200D01*
X152071428Y-104407200D02*
X151976190Y-104454819D01*
X151976190Y-104454819D02*
X151738095Y-104454819D01*
X151738095Y-104454819D02*
X151642857Y-104407200D01*
X151642857Y-104407200D02*
X151595238Y-104359580D01*
X132738095Y-72954819D02*
X133309523Y-72954819D01*
X133023809Y-73954819D02*
X133023809Y-72954819D01*
X133642857Y-73954819D02*
X133642857Y-72954819D01*
X133642857Y-72954819D02*
X134023809Y-72954819D01*
X134023809Y-72954819D02*
X134119047Y-73002438D01*
X134119047Y-73002438D02*
X134166666Y-73050057D01*
X134166666Y-73050057D02*
X134214285Y-73145295D01*
X134214285Y-73145295D02*
X134214285Y-73288152D01*
X134214285Y-73288152D02*
X134166666Y-73383390D01*
X134166666Y-73383390D02*
X134119047Y-73431009D01*
X134119047Y-73431009D02*
X134023809Y-73478628D01*
X134023809Y-73478628D02*
X133642857Y-73478628D01*
X135071428Y-73288152D02*
X135071428Y-73954819D01*
X134833333Y-72907200D02*
X134595238Y-73621485D01*
X134595238Y-73621485D02*
X135214285Y-73621485D01*
X158818095Y-98994819D02*
X159389523Y-98994819D01*
X159103809Y-99994819D02*
X159103809Y-98994819D01*
X159722857Y-99994819D02*
X159722857Y-98994819D01*
X159722857Y-98994819D02*
X160103809Y-98994819D01*
X160103809Y-98994819D02*
X160199047Y-99042438D01*
X160199047Y-99042438D02*
X160246666Y-99090057D01*
X160246666Y-99090057D02*
X160294285Y-99185295D01*
X160294285Y-99185295D02*
X160294285Y-99328152D01*
X160294285Y-99328152D02*
X160246666Y-99423390D01*
X160246666Y-99423390D02*
X160199047Y-99471009D01*
X160199047Y-99471009D02*
X160103809Y-99518628D01*
X160103809Y-99518628D02*
X159722857Y-99518628D01*
X161151428Y-98994819D02*
X160960952Y-98994819D01*
X160960952Y-98994819D02*
X160865714Y-99042438D01*
X160865714Y-99042438D02*
X160818095Y-99090057D01*
X160818095Y-99090057D02*
X160722857Y-99232914D01*
X160722857Y-99232914D02*
X160675238Y-99423390D01*
X160675238Y-99423390D02*
X160675238Y-99804342D01*
X160675238Y-99804342D02*
X160722857Y-99899580D01*
X160722857Y-99899580D02*
X160770476Y-99947200D01*
X160770476Y-99947200D02*
X160865714Y-99994819D01*
X160865714Y-99994819D02*
X161056190Y-99994819D01*
X161056190Y-99994819D02*
X161151428Y-99947200D01*
X161151428Y-99947200D02*
X161199047Y-99899580D01*
X161199047Y-99899580D02*
X161246666Y-99804342D01*
X161246666Y-99804342D02*
X161246666Y-99566247D01*
X161246666Y-99566247D02*
X161199047Y-99471009D01*
X161199047Y-99471009D02*
X161151428Y-99423390D01*
X161151428Y-99423390D02*
X161056190Y-99375771D01*
X161056190Y-99375771D02*
X160865714Y-99375771D01*
X160865714Y-99375771D02*
X160770476Y-99423390D01*
X160770476Y-99423390D02*
X160722857Y-99471009D01*
X160722857Y-99471009D02*
X160675238Y-99566247D01*
X146034819Y-74695357D02*
X145558628Y-75028690D01*
X146034819Y-75266785D02*
X145034819Y-75266785D01*
X145034819Y-75266785D02*
X145034819Y-74885833D01*
X145034819Y-74885833D02*
X145082438Y-74790595D01*
X145082438Y-74790595D02*
X145130057Y-74742976D01*
X145130057Y-74742976D02*
X145225295Y-74695357D01*
X145225295Y-74695357D02*
X145368152Y-74695357D01*
X145368152Y-74695357D02*
X145463390Y-74742976D01*
X145463390Y-74742976D02*
X145511009Y-74790595D01*
X145511009Y-74790595D02*
X145558628Y-74885833D01*
X145558628Y-74885833D02*
X145558628Y-75266785D01*
X146034819Y-73742976D02*
X146034819Y-74314404D01*
X146034819Y-74028690D02*
X145034819Y-74028690D01*
X145034819Y-74028690D02*
X145177676Y-74123928D01*
X145177676Y-74123928D02*
X145272914Y-74219166D01*
X145272914Y-74219166D02*
X145320533Y-74314404D01*
X146034819Y-72790595D02*
X146034819Y-73362023D01*
X146034819Y-73076309D02*
X145034819Y-73076309D01*
X145034819Y-73076309D02*
X145177676Y-73171547D01*
X145177676Y-73171547D02*
X145272914Y-73266785D01*
X145272914Y-73266785D02*
X145320533Y-73362023D01*
X148196667Y-75297200D02*
X148339524Y-75344819D01*
X148339524Y-75344819D02*
X148577619Y-75344819D01*
X148577619Y-75344819D02*
X148672857Y-75297200D01*
X148672857Y-75297200D02*
X148720476Y-75249580D01*
X148720476Y-75249580D02*
X148768095Y-75154342D01*
X148768095Y-75154342D02*
X148768095Y-75059104D01*
X148768095Y-75059104D02*
X148720476Y-74963866D01*
X148720476Y-74963866D02*
X148672857Y-74916247D01*
X148672857Y-74916247D02*
X148577619Y-74868628D01*
X148577619Y-74868628D02*
X148387143Y-74821009D01*
X148387143Y-74821009D02*
X148291905Y-74773390D01*
X148291905Y-74773390D02*
X148244286Y-74725771D01*
X148244286Y-74725771D02*
X148196667Y-74630533D01*
X148196667Y-74630533D02*
X148196667Y-74535295D01*
X148196667Y-74535295D02*
X148244286Y-74440057D01*
X148244286Y-74440057D02*
X148291905Y-74392438D01*
X148291905Y-74392438D02*
X148387143Y-74344819D01*
X148387143Y-74344819D02*
X148625238Y-74344819D01*
X148625238Y-74344819D02*
X148768095Y-74392438D01*
X149101429Y-74344819D02*
X149339524Y-75344819D01*
X149339524Y-75344819D02*
X149530000Y-74630533D01*
X149530000Y-74630533D02*
X149720476Y-75344819D01*
X149720476Y-75344819D02*
X149958572Y-74344819D01*
X150291905Y-74440057D02*
X150339524Y-74392438D01*
X150339524Y-74392438D02*
X150434762Y-74344819D01*
X150434762Y-74344819D02*
X150672857Y-74344819D01*
X150672857Y-74344819D02*
X150768095Y-74392438D01*
X150768095Y-74392438D02*
X150815714Y-74440057D01*
X150815714Y-74440057D02*
X150863333Y-74535295D01*
X150863333Y-74535295D02*
X150863333Y-74630533D01*
X150863333Y-74630533D02*
X150815714Y-74773390D01*
X150815714Y-74773390D02*
X150244286Y-75344819D01*
X150244286Y-75344819D02*
X150863333Y-75344819D01*
X136496666Y-59454819D02*
X136496666Y-60169104D01*
X136496666Y-60169104D02*
X136449047Y-60311961D01*
X136449047Y-60311961D02*
X136353809Y-60407200D01*
X136353809Y-60407200D02*
X136210952Y-60454819D01*
X136210952Y-60454819D02*
X136115714Y-60454819D01*
X137401428Y-59788152D02*
X137401428Y-60454819D01*
X137163333Y-59407200D02*
X136925238Y-60121485D01*
X136925238Y-60121485D02*
X137544285Y-60121485D01*
X143857142Y-108359580D02*
X143809523Y-108407200D01*
X143809523Y-108407200D02*
X143666666Y-108454819D01*
X143666666Y-108454819D02*
X143571428Y-108454819D01*
X143571428Y-108454819D02*
X143428571Y-108407200D01*
X143428571Y-108407200D02*
X143333333Y-108311961D01*
X143333333Y-108311961D02*
X143285714Y-108216723D01*
X143285714Y-108216723D02*
X143238095Y-108026247D01*
X143238095Y-108026247D02*
X143238095Y-107883390D01*
X143238095Y-107883390D02*
X143285714Y-107692914D01*
X143285714Y-107692914D02*
X143333333Y-107597676D01*
X143333333Y-107597676D02*
X143428571Y-107502438D01*
X143428571Y-107502438D02*
X143571428Y-107454819D01*
X143571428Y-107454819D02*
X143666666Y-107454819D01*
X143666666Y-107454819D02*
X143809523Y-107502438D01*
X143809523Y-107502438D02*
X143857142Y-107550057D01*
X144809523Y-108454819D02*
X144238095Y-108454819D01*
X144523809Y-108454819D02*
X144523809Y-107454819D01*
X144523809Y-107454819D02*
X144428571Y-107597676D01*
X144428571Y-107597676D02*
X144333333Y-107692914D01*
X144333333Y-107692914D02*
X144238095Y-107740533D01*
X145428571Y-107454819D02*
X145523809Y-107454819D01*
X145523809Y-107454819D02*
X145619047Y-107502438D01*
X145619047Y-107502438D02*
X145666666Y-107550057D01*
X145666666Y-107550057D02*
X145714285Y-107645295D01*
X145714285Y-107645295D02*
X145761904Y-107835771D01*
X145761904Y-107835771D02*
X145761904Y-108073866D01*
X145761904Y-108073866D02*
X145714285Y-108264342D01*
X145714285Y-108264342D02*
X145666666Y-108359580D01*
X145666666Y-108359580D02*
X145619047Y-108407200D01*
X145619047Y-108407200D02*
X145523809Y-108454819D01*
X145523809Y-108454819D02*
X145428571Y-108454819D01*
X145428571Y-108454819D02*
X145333333Y-108407200D01*
X145333333Y-108407200D02*
X145285714Y-108359580D01*
X145285714Y-108359580D02*
X145238095Y-108264342D01*
X145238095Y-108264342D02*
X145190476Y-108073866D01*
X145190476Y-108073866D02*
X145190476Y-107835771D01*
X145190476Y-107835771D02*
X145238095Y-107645295D01*
X145238095Y-107645295D02*
X145285714Y-107550057D01*
X145285714Y-107550057D02*
X145333333Y-107502438D01*
X145333333Y-107502438D02*
X145428571Y-107454819D01*
X145238095Y-114454819D02*
X145809523Y-114454819D01*
X145523809Y-115454819D02*
X145523809Y-114454819D01*
X146142857Y-115454819D02*
X146142857Y-114454819D01*
X146142857Y-114454819D02*
X146523809Y-114454819D01*
X146523809Y-114454819D02*
X146619047Y-114502438D01*
X146619047Y-114502438D02*
X146666666Y-114550057D01*
X146666666Y-114550057D02*
X146714285Y-114645295D01*
X146714285Y-114645295D02*
X146714285Y-114788152D01*
X146714285Y-114788152D02*
X146666666Y-114883390D01*
X146666666Y-114883390D02*
X146619047Y-114931009D01*
X146619047Y-114931009D02*
X146523809Y-114978628D01*
X146523809Y-114978628D02*
X146142857Y-114978628D01*
X147666666Y-115454819D02*
X147095238Y-115454819D01*
X147380952Y-115454819D02*
X147380952Y-114454819D01*
X147380952Y-114454819D02*
X147285714Y-114597676D01*
X147285714Y-114597676D02*
X147190476Y-114692914D01*
X147190476Y-114692914D02*
X147095238Y-114740533D01*
X126833333Y-69454819D02*
X126500000Y-68978628D01*
X126261905Y-69454819D02*
X126261905Y-68454819D01*
X126261905Y-68454819D02*
X126642857Y-68454819D01*
X126642857Y-68454819D02*
X126738095Y-68502438D01*
X126738095Y-68502438D02*
X126785714Y-68550057D01*
X126785714Y-68550057D02*
X126833333Y-68645295D01*
X126833333Y-68645295D02*
X126833333Y-68788152D01*
X126833333Y-68788152D02*
X126785714Y-68883390D01*
X126785714Y-68883390D02*
X126738095Y-68931009D01*
X126738095Y-68931009D02*
X126642857Y-68978628D01*
X126642857Y-68978628D02*
X126261905Y-68978628D01*
X127214286Y-68550057D02*
X127261905Y-68502438D01*
X127261905Y-68502438D02*
X127357143Y-68454819D01*
X127357143Y-68454819D02*
X127595238Y-68454819D01*
X127595238Y-68454819D02*
X127690476Y-68502438D01*
X127690476Y-68502438D02*
X127738095Y-68550057D01*
X127738095Y-68550057D02*
X127785714Y-68645295D01*
X127785714Y-68645295D02*
X127785714Y-68740533D01*
X127785714Y-68740533D02*
X127738095Y-68883390D01*
X127738095Y-68883390D02*
X127166667Y-69454819D01*
X127166667Y-69454819D02*
X127785714Y-69454819D01*
X150441905Y-81994819D02*
X150441905Y-80994819D01*
X150441905Y-80994819D02*
X150680000Y-80994819D01*
X150680000Y-80994819D02*
X150822857Y-81042438D01*
X150822857Y-81042438D02*
X150918095Y-81137676D01*
X150918095Y-81137676D02*
X150965714Y-81232914D01*
X150965714Y-81232914D02*
X151013333Y-81423390D01*
X151013333Y-81423390D02*
X151013333Y-81566247D01*
X151013333Y-81566247D02*
X150965714Y-81756723D01*
X150965714Y-81756723D02*
X150918095Y-81851961D01*
X150918095Y-81851961D02*
X150822857Y-81947200D01*
X150822857Y-81947200D02*
X150680000Y-81994819D01*
X150680000Y-81994819D02*
X150441905Y-81994819D01*
X151918095Y-80994819D02*
X151441905Y-80994819D01*
X151441905Y-80994819D02*
X151394286Y-81471009D01*
X151394286Y-81471009D02*
X151441905Y-81423390D01*
X151441905Y-81423390D02*
X151537143Y-81375771D01*
X151537143Y-81375771D02*
X151775238Y-81375771D01*
X151775238Y-81375771D02*
X151870476Y-81423390D01*
X151870476Y-81423390D02*
X151918095Y-81471009D01*
X151918095Y-81471009D02*
X151965714Y-81566247D01*
X151965714Y-81566247D02*
X151965714Y-81804342D01*
X151965714Y-81804342D02*
X151918095Y-81899580D01*
X151918095Y-81899580D02*
X151870476Y-81947200D01*
X151870476Y-81947200D02*
X151775238Y-81994819D01*
X151775238Y-81994819D02*
X151537143Y-81994819D01*
X151537143Y-81994819D02*
X151441905Y-81947200D01*
X151441905Y-81947200D02*
X151394286Y-81899580D01*
X133713333Y-104099580D02*
X133665714Y-104147200D01*
X133665714Y-104147200D02*
X133522857Y-104194819D01*
X133522857Y-104194819D02*
X133427619Y-104194819D01*
X133427619Y-104194819D02*
X133284762Y-104147200D01*
X133284762Y-104147200D02*
X133189524Y-104051961D01*
X133189524Y-104051961D02*
X133141905Y-103956723D01*
X133141905Y-103956723D02*
X133094286Y-103766247D01*
X133094286Y-103766247D02*
X133094286Y-103623390D01*
X133094286Y-103623390D02*
X133141905Y-103432914D01*
X133141905Y-103432914D02*
X133189524Y-103337676D01*
X133189524Y-103337676D02*
X133284762Y-103242438D01*
X133284762Y-103242438D02*
X133427619Y-103194819D01*
X133427619Y-103194819D02*
X133522857Y-103194819D01*
X133522857Y-103194819D02*
X133665714Y-103242438D01*
X133665714Y-103242438D02*
X133713333Y-103290057D01*
X134665714Y-104194819D02*
X134094286Y-104194819D01*
X134380000Y-104194819D02*
X134380000Y-103194819D01*
X134380000Y-103194819D02*
X134284762Y-103337676D01*
X134284762Y-103337676D02*
X134189524Y-103432914D01*
X134189524Y-103432914D02*
X134094286Y-103480533D01*
X158833333Y-110359580D02*
X158785714Y-110407200D01*
X158785714Y-110407200D02*
X158642857Y-110454819D01*
X158642857Y-110454819D02*
X158547619Y-110454819D01*
X158547619Y-110454819D02*
X158404762Y-110407200D01*
X158404762Y-110407200D02*
X158309524Y-110311961D01*
X158309524Y-110311961D02*
X158261905Y-110216723D01*
X158261905Y-110216723D02*
X158214286Y-110026247D01*
X158214286Y-110026247D02*
X158214286Y-109883390D01*
X158214286Y-109883390D02*
X158261905Y-109692914D01*
X158261905Y-109692914D02*
X158309524Y-109597676D01*
X158309524Y-109597676D02*
X158404762Y-109502438D01*
X158404762Y-109502438D02*
X158547619Y-109454819D01*
X158547619Y-109454819D02*
X158642857Y-109454819D01*
X158642857Y-109454819D02*
X158785714Y-109502438D01*
X158785714Y-109502438D02*
X158833333Y-109550057D01*
X159738095Y-109454819D02*
X159261905Y-109454819D01*
X159261905Y-109454819D02*
X159214286Y-109931009D01*
X159214286Y-109931009D02*
X159261905Y-109883390D01*
X159261905Y-109883390D02*
X159357143Y-109835771D01*
X159357143Y-109835771D02*
X159595238Y-109835771D01*
X159595238Y-109835771D02*
X159690476Y-109883390D01*
X159690476Y-109883390D02*
X159738095Y-109931009D01*
X159738095Y-109931009D02*
X159785714Y-110026247D01*
X159785714Y-110026247D02*
X159785714Y-110264342D01*
X159785714Y-110264342D02*
X159738095Y-110359580D01*
X159738095Y-110359580D02*
X159690476Y-110407200D01*
X159690476Y-110407200D02*
X159595238Y-110454819D01*
X159595238Y-110454819D02*
X159357143Y-110454819D01*
X159357143Y-110454819D02*
X159261905Y-110407200D01*
X159261905Y-110407200D02*
X159214286Y-110359580D01*
X144913333Y-80994819D02*
X144580000Y-80518628D01*
X144341905Y-80994819D02*
X144341905Y-79994819D01*
X144341905Y-79994819D02*
X144722857Y-79994819D01*
X144722857Y-79994819D02*
X144818095Y-80042438D01*
X144818095Y-80042438D02*
X144865714Y-80090057D01*
X144865714Y-80090057D02*
X144913333Y-80185295D01*
X144913333Y-80185295D02*
X144913333Y-80328152D01*
X144913333Y-80328152D02*
X144865714Y-80423390D01*
X144865714Y-80423390D02*
X144818095Y-80471009D01*
X144818095Y-80471009D02*
X144722857Y-80518628D01*
X144722857Y-80518628D02*
X144341905Y-80518628D01*
X145484762Y-80423390D02*
X145389524Y-80375771D01*
X145389524Y-80375771D02*
X145341905Y-80328152D01*
X145341905Y-80328152D02*
X145294286Y-80232914D01*
X145294286Y-80232914D02*
X145294286Y-80185295D01*
X145294286Y-80185295D02*
X145341905Y-80090057D01*
X145341905Y-80090057D02*
X145389524Y-80042438D01*
X145389524Y-80042438D02*
X145484762Y-79994819D01*
X145484762Y-79994819D02*
X145675238Y-79994819D01*
X145675238Y-79994819D02*
X145770476Y-80042438D01*
X145770476Y-80042438D02*
X145818095Y-80090057D01*
X145818095Y-80090057D02*
X145865714Y-80185295D01*
X145865714Y-80185295D02*
X145865714Y-80232914D01*
X145865714Y-80232914D02*
X145818095Y-80328152D01*
X145818095Y-80328152D02*
X145770476Y-80375771D01*
X145770476Y-80375771D02*
X145675238Y-80423390D01*
X145675238Y-80423390D02*
X145484762Y-80423390D01*
X145484762Y-80423390D02*
X145389524Y-80471009D01*
X145389524Y-80471009D02*
X145341905Y-80518628D01*
X145341905Y-80518628D02*
X145294286Y-80613866D01*
X145294286Y-80613866D02*
X145294286Y-80804342D01*
X145294286Y-80804342D02*
X145341905Y-80899580D01*
X145341905Y-80899580D02*
X145389524Y-80947200D01*
X145389524Y-80947200D02*
X145484762Y-80994819D01*
X145484762Y-80994819D02*
X145675238Y-80994819D01*
X145675238Y-80994819D02*
X145770476Y-80947200D01*
X145770476Y-80947200D02*
X145818095Y-80899580D01*
X145818095Y-80899580D02*
X145865714Y-80804342D01*
X145865714Y-80804342D02*
X145865714Y-80613866D01*
X145865714Y-80613866D02*
X145818095Y-80518628D01*
X145818095Y-80518628D02*
X145770476Y-80471009D01*
X145770476Y-80471009D02*
X145675238Y-80423390D01*
X178785714Y-82669104D02*
X179261904Y-82669104D01*
X178690476Y-82954819D02*
X179023809Y-81954819D01*
X179023809Y-81954819D02*
X179357142Y-82954819D01*
X180214285Y-82954819D02*
X179642857Y-82954819D01*
X179928571Y-82954819D02*
X179928571Y-81954819D01*
X179928571Y-81954819D02*
X179833333Y-82097676D01*
X179833333Y-82097676D02*
X179738095Y-82192914D01*
X179738095Y-82192914D02*
X179642857Y-82240533D01*
X172465626Y-59582319D02*
X172465626Y-58582319D01*
X172465626Y-59058509D02*
X173037054Y-59058509D01*
X173037054Y-59582319D02*
X173037054Y-58582319D01*
X173465626Y-58677557D02*
X173513245Y-58629938D01*
X173513245Y-58629938D02*
X173608483Y-58582319D01*
X173608483Y-58582319D02*
X173846578Y-58582319D01*
X173846578Y-58582319D02*
X173941816Y-58629938D01*
X173941816Y-58629938D02*
X173989435Y-58677557D01*
X173989435Y-58677557D02*
X174037054Y-58772795D01*
X174037054Y-58772795D02*
X174037054Y-58868033D01*
X174037054Y-58868033D02*
X173989435Y-59010890D01*
X173989435Y-59010890D02*
X173418007Y-59582319D01*
X173418007Y-59582319D02*
X174037054Y-59582319D01*
X172359580Y-113142857D02*
X172407200Y-113190476D01*
X172407200Y-113190476D02*
X172454819Y-113333333D01*
X172454819Y-113333333D02*
X172454819Y-113428571D01*
X172454819Y-113428571D02*
X172407200Y-113571428D01*
X172407200Y-113571428D02*
X172311961Y-113666666D01*
X172311961Y-113666666D02*
X172216723Y-113714285D01*
X172216723Y-113714285D02*
X172026247Y-113761904D01*
X172026247Y-113761904D02*
X171883390Y-113761904D01*
X171883390Y-113761904D02*
X171692914Y-113714285D01*
X171692914Y-113714285D02*
X171597676Y-113666666D01*
X171597676Y-113666666D02*
X171502438Y-113571428D01*
X171502438Y-113571428D02*
X171454819Y-113428571D01*
X171454819Y-113428571D02*
X171454819Y-113333333D01*
X171454819Y-113333333D02*
X171502438Y-113190476D01*
X171502438Y-113190476D02*
X171550057Y-113142857D01*
X172454819Y-112190476D02*
X172454819Y-112761904D01*
X172454819Y-112476190D02*
X171454819Y-112476190D01*
X171454819Y-112476190D02*
X171597676Y-112571428D01*
X171597676Y-112571428D02*
X171692914Y-112666666D01*
X171692914Y-112666666D02*
X171740533Y-112761904D01*
X172454819Y-111238095D02*
X172454819Y-111809523D01*
X172454819Y-111523809D02*
X171454819Y-111523809D01*
X171454819Y-111523809D02*
X171597676Y-111619047D01*
X171597676Y-111619047D02*
X171692914Y-111714285D01*
X171692914Y-111714285D02*
X171740533Y-111809523D01*
X127965626Y-59582319D02*
X127965626Y-58582319D01*
X127965626Y-59058509D02*
X128537054Y-59058509D01*
X128537054Y-59582319D02*
X128537054Y-58582319D01*
X129537054Y-59582319D02*
X128965626Y-59582319D01*
X129251340Y-59582319D02*
X129251340Y-58582319D01*
X129251340Y-58582319D02*
X129156102Y-58725176D01*
X129156102Y-58725176D02*
X129060864Y-58820414D01*
X129060864Y-58820414D02*
X128965626Y-58868033D01*
X161700833Y-111944819D02*
X161224643Y-111944819D01*
X161224643Y-111944819D02*
X161224643Y-110944819D01*
X162557976Y-111944819D02*
X161986548Y-111944819D01*
X162272262Y-111944819D02*
X162272262Y-110944819D01*
X162272262Y-110944819D02*
X162177024Y-111087676D01*
X162177024Y-111087676D02*
X162081786Y-111182914D01*
X162081786Y-111182914D02*
X161986548Y-111230533D01*
X172288333Y-110359580D02*
X172240714Y-110407200D01*
X172240714Y-110407200D02*
X172097857Y-110454819D01*
X172097857Y-110454819D02*
X172002619Y-110454819D01*
X172002619Y-110454819D02*
X171859762Y-110407200D01*
X171859762Y-110407200D02*
X171764524Y-110311961D01*
X171764524Y-110311961D02*
X171716905Y-110216723D01*
X171716905Y-110216723D02*
X171669286Y-110026247D01*
X171669286Y-110026247D02*
X171669286Y-109883390D01*
X171669286Y-109883390D02*
X171716905Y-109692914D01*
X171716905Y-109692914D02*
X171764524Y-109597676D01*
X171764524Y-109597676D02*
X171859762Y-109502438D01*
X171859762Y-109502438D02*
X172002619Y-109454819D01*
X172002619Y-109454819D02*
X172097857Y-109454819D01*
X172097857Y-109454819D02*
X172240714Y-109502438D01*
X172240714Y-109502438D02*
X172288333Y-109550057D01*
X172764524Y-110454819D02*
X172955000Y-110454819D01*
X172955000Y-110454819D02*
X173050238Y-110407200D01*
X173050238Y-110407200D02*
X173097857Y-110359580D01*
X173097857Y-110359580D02*
X173193095Y-110216723D01*
X173193095Y-110216723D02*
X173240714Y-110026247D01*
X173240714Y-110026247D02*
X173240714Y-109645295D01*
X173240714Y-109645295D02*
X173193095Y-109550057D01*
X173193095Y-109550057D02*
X173145476Y-109502438D01*
X173145476Y-109502438D02*
X173050238Y-109454819D01*
X173050238Y-109454819D02*
X172859762Y-109454819D01*
X172859762Y-109454819D02*
X172764524Y-109502438D01*
X172764524Y-109502438D02*
X172716905Y-109550057D01*
X172716905Y-109550057D02*
X172669286Y-109645295D01*
X172669286Y-109645295D02*
X172669286Y-109883390D01*
X172669286Y-109883390D02*
X172716905Y-109978628D01*
X172716905Y-109978628D02*
X172764524Y-110026247D01*
X172764524Y-110026247D02*
X172859762Y-110073866D01*
X172859762Y-110073866D02*
X173050238Y-110073866D01*
X173050238Y-110073866D02*
X173145476Y-110026247D01*
X173145476Y-110026247D02*
X173193095Y-109978628D01*
X173193095Y-109978628D02*
X173240714Y-109883390D01*
X159833333Y-105359580D02*
X159785714Y-105407200D01*
X159785714Y-105407200D02*
X159642857Y-105454819D01*
X159642857Y-105454819D02*
X159547619Y-105454819D01*
X159547619Y-105454819D02*
X159404762Y-105407200D01*
X159404762Y-105407200D02*
X159309524Y-105311961D01*
X159309524Y-105311961D02*
X159261905Y-105216723D01*
X159261905Y-105216723D02*
X159214286Y-105026247D01*
X159214286Y-105026247D02*
X159214286Y-104883390D01*
X159214286Y-104883390D02*
X159261905Y-104692914D01*
X159261905Y-104692914D02*
X159309524Y-104597676D01*
X159309524Y-104597676D02*
X159404762Y-104502438D01*
X159404762Y-104502438D02*
X159547619Y-104454819D01*
X159547619Y-104454819D02*
X159642857Y-104454819D01*
X159642857Y-104454819D02*
X159785714Y-104502438D01*
X159785714Y-104502438D02*
X159833333Y-104550057D01*
X160166667Y-104454819D02*
X160833333Y-104454819D01*
X160833333Y-104454819D02*
X160404762Y-105454819D01*
X150746666Y-58994819D02*
X150746666Y-59709104D01*
X150746666Y-59709104D02*
X150699047Y-59851961D01*
X150699047Y-59851961D02*
X150603809Y-59947200D01*
X150603809Y-59947200D02*
X150460952Y-59994819D01*
X150460952Y-59994819D02*
X150365714Y-59994819D01*
X151175238Y-59090057D02*
X151222857Y-59042438D01*
X151222857Y-59042438D02*
X151318095Y-58994819D01*
X151318095Y-58994819D02*
X151556190Y-58994819D01*
X151556190Y-58994819D02*
X151651428Y-59042438D01*
X151651428Y-59042438D02*
X151699047Y-59090057D01*
X151699047Y-59090057D02*
X151746666Y-59185295D01*
X151746666Y-59185295D02*
X151746666Y-59280533D01*
X151746666Y-59280533D02*
X151699047Y-59423390D01*
X151699047Y-59423390D02*
X151127619Y-59994819D01*
X151127619Y-59994819D02*
X151746666Y-59994819D01*
X136785714Y-80669104D02*
X137261904Y-80669104D01*
X136690476Y-80954819D02*
X137023809Y-79954819D01*
X137023809Y-79954819D02*
X137357142Y-80954819D01*
X137642857Y-80050057D02*
X137690476Y-80002438D01*
X137690476Y-80002438D02*
X137785714Y-79954819D01*
X137785714Y-79954819D02*
X138023809Y-79954819D01*
X138023809Y-79954819D02*
X138119047Y-80002438D01*
X138119047Y-80002438D02*
X138166666Y-80050057D01*
X138166666Y-80050057D02*
X138214285Y-80145295D01*
X138214285Y-80145295D02*
X138214285Y-80240533D01*
X138214285Y-80240533D02*
X138166666Y-80383390D01*
X138166666Y-80383390D02*
X137595238Y-80954819D01*
X137595238Y-80954819D02*
X138214285Y-80954819D01*
X151333333Y-84454819D02*
X151000000Y-83978628D01*
X150761905Y-84454819D02*
X150761905Y-83454819D01*
X150761905Y-83454819D02*
X151142857Y-83454819D01*
X151142857Y-83454819D02*
X151238095Y-83502438D01*
X151238095Y-83502438D02*
X151285714Y-83550057D01*
X151285714Y-83550057D02*
X151333333Y-83645295D01*
X151333333Y-83645295D02*
X151333333Y-83788152D01*
X151333333Y-83788152D02*
X151285714Y-83883390D01*
X151285714Y-83883390D02*
X151238095Y-83931009D01*
X151238095Y-83931009D02*
X151142857Y-83978628D01*
X151142857Y-83978628D02*
X150761905Y-83978628D01*
X152190476Y-83788152D02*
X152190476Y-84454819D01*
X151952381Y-83407200D02*
X151714286Y-84121485D01*
X151714286Y-84121485D02*
X152333333Y-84121485D01*
X126833333Y-71954819D02*
X126500000Y-71478628D01*
X126261905Y-71954819D02*
X126261905Y-70954819D01*
X126261905Y-70954819D02*
X126642857Y-70954819D01*
X126642857Y-70954819D02*
X126738095Y-71002438D01*
X126738095Y-71002438D02*
X126785714Y-71050057D01*
X126785714Y-71050057D02*
X126833333Y-71145295D01*
X126833333Y-71145295D02*
X126833333Y-71288152D01*
X126833333Y-71288152D02*
X126785714Y-71383390D01*
X126785714Y-71383390D02*
X126738095Y-71431009D01*
X126738095Y-71431009D02*
X126642857Y-71478628D01*
X126642857Y-71478628D02*
X126261905Y-71478628D01*
X127166667Y-70954819D02*
X127785714Y-70954819D01*
X127785714Y-70954819D02*
X127452381Y-71335771D01*
X127452381Y-71335771D02*
X127595238Y-71335771D01*
X127595238Y-71335771D02*
X127690476Y-71383390D01*
X127690476Y-71383390D02*
X127738095Y-71431009D01*
X127738095Y-71431009D02*
X127785714Y-71526247D01*
X127785714Y-71526247D02*
X127785714Y-71764342D01*
X127785714Y-71764342D02*
X127738095Y-71859580D01*
X127738095Y-71859580D02*
X127690476Y-71907200D01*
X127690476Y-71907200D02*
X127595238Y-71954819D01*
X127595238Y-71954819D02*
X127309524Y-71954819D01*
X127309524Y-71954819D02*
X127214286Y-71907200D01*
X127214286Y-71907200D02*
X127166667Y-71859580D01*
X144954819Y-68142857D02*
X144478628Y-68476190D01*
X144954819Y-68714285D02*
X143954819Y-68714285D01*
X143954819Y-68714285D02*
X143954819Y-68333333D01*
X143954819Y-68333333D02*
X144002438Y-68238095D01*
X144002438Y-68238095D02*
X144050057Y-68190476D01*
X144050057Y-68190476D02*
X144145295Y-68142857D01*
X144145295Y-68142857D02*
X144288152Y-68142857D01*
X144288152Y-68142857D02*
X144383390Y-68190476D01*
X144383390Y-68190476D02*
X144431009Y-68238095D01*
X144431009Y-68238095D02*
X144478628Y-68333333D01*
X144478628Y-68333333D02*
X144478628Y-68714285D01*
X144954819Y-67190476D02*
X144954819Y-67761904D01*
X144954819Y-67476190D02*
X143954819Y-67476190D01*
X143954819Y-67476190D02*
X144097676Y-67571428D01*
X144097676Y-67571428D02*
X144192914Y-67666666D01*
X144192914Y-67666666D02*
X144240533Y-67761904D01*
X144050057Y-66809523D02*
X144002438Y-66761904D01*
X144002438Y-66761904D02*
X143954819Y-66666666D01*
X143954819Y-66666666D02*
X143954819Y-66428571D01*
X143954819Y-66428571D02*
X144002438Y-66333333D01*
X144002438Y-66333333D02*
X144050057Y-66285714D01*
X144050057Y-66285714D02*
X144145295Y-66238095D01*
X144145295Y-66238095D02*
X144240533Y-66238095D01*
X144240533Y-66238095D02*
X144383390Y-66285714D01*
X144383390Y-66285714D02*
X144954819Y-66857142D01*
X144954819Y-66857142D02*
X144954819Y-66238095D01*
X135238095Y-68456819D02*
X135809523Y-68456819D01*
X135523809Y-69456819D02*
X135523809Y-68456819D01*
X136142857Y-69456819D02*
X136142857Y-68456819D01*
X136142857Y-68456819D02*
X136523809Y-68456819D01*
X136523809Y-68456819D02*
X136619047Y-68504438D01*
X136619047Y-68504438D02*
X136666666Y-68552057D01*
X136666666Y-68552057D02*
X136714285Y-68647295D01*
X136714285Y-68647295D02*
X136714285Y-68790152D01*
X136714285Y-68790152D02*
X136666666Y-68885390D01*
X136666666Y-68885390D02*
X136619047Y-68933009D01*
X136619047Y-68933009D02*
X136523809Y-68980628D01*
X136523809Y-68980628D02*
X136142857Y-68980628D01*
X137047619Y-68456819D02*
X137666666Y-68456819D01*
X137666666Y-68456819D02*
X137333333Y-68837771D01*
X137333333Y-68837771D02*
X137476190Y-68837771D01*
X137476190Y-68837771D02*
X137571428Y-68885390D01*
X137571428Y-68885390D02*
X137619047Y-68933009D01*
X137619047Y-68933009D02*
X137666666Y-69028247D01*
X137666666Y-69028247D02*
X137666666Y-69266342D01*
X137666666Y-69266342D02*
X137619047Y-69361580D01*
X137619047Y-69361580D02*
X137571428Y-69409200D01*
X137571428Y-69409200D02*
X137476190Y-69456819D01*
X137476190Y-69456819D02*
X137190476Y-69456819D01*
X137190476Y-69456819D02*
X137095238Y-69409200D01*
X137095238Y-69409200D02*
X137047619Y-69361580D01*
X172288333Y-107399580D02*
X172240714Y-107447200D01*
X172240714Y-107447200D02*
X172097857Y-107494819D01*
X172097857Y-107494819D02*
X172002619Y-107494819D01*
X172002619Y-107494819D02*
X171859762Y-107447200D01*
X171859762Y-107447200D02*
X171764524Y-107351961D01*
X171764524Y-107351961D02*
X171716905Y-107256723D01*
X171716905Y-107256723D02*
X171669286Y-107066247D01*
X171669286Y-107066247D02*
X171669286Y-106923390D01*
X171669286Y-106923390D02*
X171716905Y-106732914D01*
X171716905Y-106732914D02*
X171764524Y-106637676D01*
X171764524Y-106637676D02*
X171859762Y-106542438D01*
X171859762Y-106542438D02*
X172002619Y-106494819D01*
X172002619Y-106494819D02*
X172097857Y-106494819D01*
X172097857Y-106494819D02*
X172240714Y-106542438D01*
X172240714Y-106542438D02*
X172288333Y-106590057D01*
X173145476Y-106494819D02*
X172955000Y-106494819D01*
X172955000Y-106494819D02*
X172859762Y-106542438D01*
X172859762Y-106542438D02*
X172812143Y-106590057D01*
X172812143Y-106590057D02*
X172716905Y-106732914D01*
X172716905Y-106732914D02*
X172669286Y-106923390D01*
X172669286Y-106923390D02*
X172669286Y-107304342D01*
X172669286Y-107304342D02*
X172716905Y-107399580D01*
X172716905Y-107399580D02*
X172764524Y-107447200D01*
X172764524Y-107447200D02*
X172859762Y-107494819D01*
X172859762Y-107494819D02*
X173050238Y-107494819D01*
X173050238Y-107494819D02*
X173145476Y-107447200D01*
X173145476Y-107447200D02*
X173193095Y-107399580D01*
X173193095Y-107399580D02*
X173240714Y-107304342D01*
X173240714Y-107304342D02*
X173240714Y-107066247D01*
X173240714Y-107066247D02*
X173193095Y-106971009D01*
X173193095Y-106971009D02*
X173145476Y-106923390D01*
X173145476Y-106923390D02*
X173050238Y-106875771D01*
X173050238Y-106875771D02*
X172859762Y-106875771D01*
X172859762Y-106875771D02*
X172764524Y-106923390D01*
X172764524Y-106923390D02*
X172716905Y-106971009D01*
X172716905Y-106971009D02*
X172669286Y-107066247D01*
X139818095Y-104046819D02*
X140389523Y-104046819D01*
X140103809Y-105046819D02*
X140103809Y-104046819D01*
X140722857Y-105046819D02*
X140722857Y-104046819D01*
X140722857Y-104046819D02*
X141103809Y-104046819D01*
X141103809Y-104046819D02*
X141199047Y-104094438D01*
X141199047Y-104094438D02*
X141246666Y-104142057D01*
X141246666Y-104142057D02*
X141294285Y-104237295D01*
X141294285Y-104237295D02*
X141294285Y-104380152D01*
X141294285Y-104380152D02*
X141246666Y-104475390D01*
X141246666Y-104475390D02*
X141199047Y-104523009D01*
X141199047Y-104523009D02*
X141103809Y-104570628D01*
X141103809Y-104570628D02*
X140722857Y-104570628D01*
X141627619Y-104046819D02*
X142294285Y-104046819D01*
X142294285Y-104046819D02*
X141865714Y-105046819D01*
X151562085Y-100359580D02*
X151514466Y-100407200D01*
X151514466Y-100407200D02*
X151371609Y-100454819D01*
X151371609Y-100454819D02*
X151276371Y-100454819D01*
X151276371Y-100454819D02*
X151133514Y-100407200D01*
X151133514Y-100407200D02*
X151038276Y-100311961D01*
X151038276Y-100311961D02*
X150990657Y-100216723D01*
X150990657Y-100216723D02*
X150943038Y-100026247D01*
X150943038Y-100026247D02*
X150943038Y-99883390D01*
X150943038Y-99883390D02*
X150990657Y-99692914D01*
X150990657Y-99692914D02*
X151038276Y-99597676D01*
X151038276Y-99597676D02*
X151133514Y-99502438D01*
X151133514Y-99502438D02*
X151276371Y-99454819D01*
X151276371Y-99454819D02*
X151371609Y-99454819D01*
X151371609Y-99454819D02*
X151514466Y-99502438D01*
X151514466Y-99502438D02*
X151562085Y-99550057D01*
X152133514Y-99883390D02*
X152038276Y-99835771D01*
X152038276Y-99835771D02*
X151990657Y-99788152D01*
X151990657Y-99788152D02*
X151943038Y-99692914D01*
X151943038Y-99692914D02*
X151943038Y-99645295D01*
X151943038Y-99645295D02*
X151990657Y-99550057D01*
X151990657Y-99550057D02*
X152038276Y-99502438D01*
X152038276Y-99502438D02*
X152133514Y-99454819D01*
X152133514Y-99454819D02*
X152323990Y-99454819D01*
X152323990Y-99454819D02*
X152419228Y-99502438D01*
X152419228Y-99502438D02*
X152466847Y-99550057D01*
X152466847Y-99550057D02*
X152514466Y-99645295D01*
X152514466Y-99645295D02*
X152514466Y-99692914D01*
X152514466Y-99692914D02*
X152466847Y-99788152D01*
X152466847Y-99788152D02*
X152419228Y-99835771D01*
X152419228Y-99835771D02*
X152323990Y-99883390D01*
X152323990Y-99883390D02*
X152133514Y-99883390D01*
X152133514Y-99883390D02*
X152038276Y-99931009D01*
X152038276Y-99931009D02*
X151990657Y-99978628D01*
X151990657Y-99978628D02*
X151943038Y-100073866D01*
X151943038Y-100073866D02*
X151943038Y-100264342D01*
X151943038Y-100264342D02*
X151990657Y-100359580D01*
X151990657Y-100359580D02*
X152038276Y-100407200D01*
X152038276Y-100407200D02*
X152133514Y-100454819D01*
X152133514Y-100454819D02*
X152323990Y-100454819D01*
X152323990Y-100454819D02*
X152419228Y-100407200D01*
X152419228Y-100407200D02*
X152466847Y-100359580D01*
X152466847Y-100359580D02*
X152514466Y-100264342D01*
X152514466Y-100264342D02*
X152514466Y-100073866D01*
X152514466Y-100073866D02*
X152466847Y-99978628D01*
X152466847Y-99978628D02*
X152419228Y-99931009D01*
X152419228Y-99931009D02*
X152323990Y-99883390D01*
X167666666Y-74354819D02*
X167666666Y-75069104D01*
X167666666Y-75069104D02*
X167619047Y-75211961D01*
X167619047Y-75211961D02*
X167523809Y-75307200D01*
X167523809Y-75307200D02*
X167380952Y-75354819D01*
X167380952Y-75354819D02*
X167285714Y-75354819D01*
X168571428Y-74354819D02*
X168380952Y-74354819D01*
X168380952Y-74354819D02*
X168285714Y-74402438D01*
X168285714Y-74402438D02*
X168238095Y-74450057D01*
X168238095Y-74450057D02*
X168142857Y-74592914D01*
X168142857Y-74592914D02*
X168095238Y-74783390D01*
X168095238Y-74783390D02*
X168095238Y-75164342D01*
X168095238Y-75164342D02*
X168142857Y-75259580D01*
X168142857Y-75259580D02*
X168190476Y-75307200D01*
X168190476Y-75307200D02*
X168285714Y-75354819D01*
X168285714Y-75354819D02*
X168476190Y-75354819D01*
X168476190Y-75354819D02*
X168571428Y-75307200D01*
X168571428Y-75307200D02*
X168619047Y-75259580D01*
X168619047Y-75259580D02*
X168666666Y-75164342D01*
X168666666Y-75164342D02*
X168666666Y-74926247D01*
X168666666Y-74926247D02*
X168619047Y-74831009D01*
X168619047Y-74831009D02*
X168571428Y-74783390D01*
X168571428Y-74783390D02*
X168476190Y-74735771D01*
X168476190Y-74735771D02*
X168285714Y-74735771D01*
X168285714Y-74735771D02*
X168190476Y-74783390D01*
X168190476Y-74783390D02*
X168142857Y-74831009D01*
X168142857Y-74831009D02*
X168095238Y-74926247D01*
X157454819Y-85666666D02*
X156978628Y-85999999D01*
X157454819Y-86238094D02*
X156454819Y-86238094D01*
X156454819Y-86238094D02*
X156454819Y-85857142D01*
X156454819Y-85857142D02*
X156502438Y-85761904D01*
X156502438Y-85761904D02*
X156550057Y-85714285D01*
X156550057Y-85714285D02*
X156645295Y-85666666D01*
X156645295Y-85666666D02*
X156788152Y-85666666D01*
X156788152Y-85666666D02*
X156883390Y-85714285D01*
X156883390Y-85714285D02*
X156931009Y-85761904D01*
X156931009Y-85761904D02*
X156978628Y-85857142D01*
X156978628Y-85857142D02*
X156978628Y-86238094D01*
X156454819Y-85333332D02*
X156454819Y-84666666D01*
X156454819Y-84666666D02*
X157454819Y-85095237D01*
X160000833Y-95924819D02*
X159667500Y-95448628D01*
X159429405Y-95924819D02*
X159429405Y-94924819D01*
X159429405Y-94924819D02*
X159810357Y-94924819D01*
X159810357Y-94924819D02*
X159905595Y-94972438D01*
X159905595Y-94972438D02*
X159953214Y-95020057D01*
X159953214Y-95020057D02*
X160000833Y-95115295D01*
X160000833Y-95115295D02*
X160000833Y-95258152D01*
X160000833Y-95258152D02*
X159953214Y-95353390D01*
X159953214Y-95353390D02*
X159905595Y-95401009D01*
X159905595Y-95401009D02*
X159810357Y-95448628D01*
X159810357Y-95448628D02*
X159429405Y-95448628D01*
X160953214Y-95924819D02*
X160381786Y-95924819D01*
X160667500Y-95924819D02*
X160667500Y-94924819D01*
X160667500Y-94924819D02*
X160572262Y-95067676D01*
X160572262Y-95067676D02*
X160477024Y-95162914D01*
X160477024Y-95162914D02*
X160381786Y-95210533D01*
X159341905Y-90994819D02*
X159341905Y-89994819D01*
X159341905Y-89994819D02*
X159580000Y-89994819D01*
X159580000Y-89994819D02*
X159722857Y-90042438D01*
X159722857Y-90042438D02*
X159818095Y-90137676D01*
X159818095Y-90137676D02*
X159865714Y-90232914D01*
X159865714Y-90232914D02*
X159913333Y-90423390D01*
X159913333Y-90423390D02*
X159913333Y-90566247D01*
X159913333Y-90566247D02*
X159865714Y-90756723D01*
X159865714Y-90756723D02*
X159818095Y-90851961D01*
X159818095Y-90851961D02*
X159722857Y-90947200D01*
X159722857Y-90947200D02*
X159580000Y-90994819D01*
X159580000Y-90994819D02*
X159341905Y-90994819D01*
X160865714Y-90994819D02*
X160294286Y-90994819D01*
X160580000Y-90994819D02*
X160580000Y-89994819D01*
X160580000Y-89994819D02*
X160484762Y-90137676D01*
X160484762Y-90137676D02*
X160389524Y-90232914D01*
X160389524Y-90232914D02*
X160294286Y-90280533D01*
X144341905Y-82494819D02*
X144341905Y-81494819D01*
X144341905Y-81494819D02*
X144580000Y-81494819D01*
X144580000Y-81494819D02*
X144722857Y-81542438D01*
X144722857Y-81542438D02*
X144818095Y-81637676D01*
X144818095Y-81637676D02*
X144865714Y-81732914D01*
X144865714Y-81732914D02*
X144913333Y-81923390D01*
X144913333Y-81923390D02*
X144913333Y-82066247D01*
X144913333Y-82066247D02*
X144865714Y-82256723D01*
X144865714Y-82256723D02*
X144818095Y-82351961D01*
X144818095Y-82351961D02*
X144722857Y-82447200D01*
X144722857Y-82447200D02*
X144580000Y-82494819D01*
X144580000Y-82494819D02*
X144341905Y-82494819D01*
X145294286Y-81590057D02*
X145341905Y-81542438D01*
X145341905Y-81542438D02*
X145437143Y-81494819D01*
X145437143Y-81494819D02*
X145675238Y-81494819D01*
X145675238Y-81494819D02*
X145770476Y-81542438D01*
X145770476Y-81542438D02*
X145818095Y-81590057D01*
X145818095Y-81590057D02*
X145865714Y-81685295D01*
X145865714Y-81685295D02*
X145865714Y-81780533D01*
X145865714Y-81780533D02*
X145818095Y-81923390D01*
X145818095Y-81923390D02*
X145246667Y-82494819D01*
X145246667Y-82494819D02*
X145865714Y-82494819D01*
X160487200Y-89373332D02*
X160534819Y-89230475D01*
X160534819Y-89230475D02*
X160534819Y-88992380D01*
X160534819Y-88992380D02*
X160487200Y-88897142D01*
X160487200Y-88897142D02*
X160439580Y-88849523D01*
X160439580Y-88849523D02*
X160344342Y-88801904D01*
X160344342Y-88801904D02*
X160249104Y-88801904D01*
X160249104Y-88801904D02*
X160153866Y-88849523D01*
X160153866Y-88849523D02*
X160106247Y-88897142D01*
X160106247Y-88897142D02*
X160058628Y-88992380D01*
X160058628Y-88992380D02*
X160011009Y-89182856D01*
X160011009Y-89182856D02*
X159963390Y-89278094D01*
X159963390Y-89278094D02*
X159915771Y-89325713D01*
X159915771Y-89325713D02*
X159820533Y-89373332D01*
X159820533Y-89373332D02*
X159725295Y-89373332D01*
X159725295Y-89373332D02*
X159630057Y-89325713D01*
X159630057Y-89325713D02*
X159582438Y-89278094D01*
X159582438Y-89278094D02*
X159534819Y-89182856D01*
X159534819Y-89182856D02*
X159534819Y-88944761D01*
X159534819Y-88944761D02*
X159582438Y-88801904D01*
X159534819Y-88468570D02*
X160534819Y-88230475D01*
X160534819Y-88230475D02*
X159820533Y-88039999D01*
X159820533Y-88039999D02*
X160534819Y-87849523D01*
X160534819Y-87849523D02*
X159534819Y-87611428D01*
X159534819Y-87325713D02*
X159534819Y-86706666D01*
X159534819Y-86706666D02*
X159915771Y-87039999D01*
X159915771Y-87039999D02*
X159915771Y-86897142D01*
X159915771Y-86897142D02*
X159963390Y-86801904D01*
X159963390Y-86801904D02*
X160011009Y-86754285D01*
X160011009Y-86754285D02*
X160106247Y-86706666D01*
X160106247Y-86706666D02*
X160344342Y-86706666D01*
X160344342Y-86706666D02*
X160439580Y-86754285D01*
X160439580Y-86754285D02*
X160487200Y-86801904D01*
X160487200Y-86801904D02*
X160534819Y-86897142D01*
X160534819Y-86897142D02*
X160534819Y-87182856D01*
X160534819Y-87182856D02*
X160487200Y-87278094D01*
X160487200Y-87278094D02*
X160439580Y-87325713D01*
X140966905Y-109064819D02*
X140966905Y-108064819D01*
X140966905Y-108064819D02*
X141205000Y-108064819D01*
X141205000Y-108064819D02*
X141347857Y-108112438D01*
X141347857Y-108112438D02*
X141443095Y-108207676D01*
X141443095Y-108207676D02*
X141490714Y-108302914D01*
X141490714Y-108302914D02*
X141538333Y-108493390D01*
X141538333Y-108493390D02*
X141538333Y-108636247D01*
X141538333Y-108636247D02*
X141490714Y-108826723D01*
X141490714Y-108826723D02*
X141443095Y-108921961D01*
X141443095Y-108921961D02*
X141347857Y-109017200D01*
X141347857Y-109017200D02*
X141205000Y-109064819D01*
X141205000Y-109064819D02*
X140966905Y-109064819D01*
X142395476Y-108398152D02*
X142395476Y-109064819D01*
X142157381Y-108017200D02*
X141919286Y-108731485D01*
X141919286Y-108731485D02*
X142538333Y-108731485D01*
X149318095Y-84269819D02*
X149318095Y-85079342D01*
X149318095Y-85079342D02*
X149365714Y-85174580D01*
X149365714Y-85174580D02*
X149413333Y-85222200D01*
X149413333Y-85222200D02*
X149508571Y-85269819D01*
X149508571Y-85269819D02*
X149699047Y-85269819D01*
X149699047Y-85269819D02*
X149794285Y-85222200D01*
X149794285Y-85222200D02*
X149841904Y-85174580D01*
X149841904Y-85174580D02*
X149889523Y-85079342D01*
X149889523Y-85079342D02*
X149889523Y-84269819D01*
X150889523Y-85269819D02*
X150318095Y-85269819D01*
X150603809Y-85269819D02*
X150603809Y-84269819D01*
X150603809Y-84269819D02*
X150508571Y-84412676D01*
X150508571Y-84412676D02*
X150413333Y-84507914D01*
X150413333Y-84507914D02*
X150318095Y-84555533D01*
X129416666Y-72904819D02*
X129416666Y-73619104D01*
X129416666Y-73619104D02*
X129369047Y-73761961D01*
X129369047Y-73761961D02*
X129273809Y-73857200D01*
X129273809Y-73857200D02*
X129130952Y-73904819D01*
X129130952Y-73904819D02*
X129035714Y-73904819D01*
X129797619Y-72904819D02*
X130464285Y-72904819D01*
X130464285Y-72904819D02*
X130035714Y-73904819D01*
X144738095Y-100054819D02*
X144738095Y-100864342D01*
X144738095Y-100864342D02*
X144785714Y-100959580D01*
X144785714Y-100959580D02*
X144833333Y-101007200D01*
X144833333Y-101007200D02*
X144928571Y-101054819D01*
X144928571Y-101054819D02*
X145119047Y-101054819D01*
X145119047Y-101054819D02*
X145214285Y-101007200D01*
X145214285Y-101007200D02*
X145261904Y-100959580D01*
X145261904Y-100959580D02*
X145309523Y-100864342D01*
X145309523Y-100864342D02*
X145309523Y-100054819D01*
X146214285Y-100388152D02*
X146214285Y-101054819D01*
X145976190Y-100007200D02*
X145738095Y-100721485D01*
X145738095Y-100721485D02*
X146357142Y-100721485D01*
X151246666Y-106444819D02*
X151246666Y-107159104D01*
X151246666Y-107159104D02*
X151199047Y-107301961D01*
X151199047Y-107301961D02*
X151103809Y-107397200D01*
X151103809Y-107397200D02*
X150960952Y-107444819D01*
X150960952Y-107444819D02*
X150865714Y-107444819D01*
X152246666Y-107444819D02*
X151675238Y-107444819D01*
X151960952Y-107444819D02*
X151960952Y-106444819D01*
X151960952Y-106444819D02*
X151865714Y-106587676D01*
X151865714Y-106587676D02*
X151770476Y-106682914D01*
X151770476Y-106682914D02*
X151675238Y-106730533D01*
X162996666Y-67544819D02*
X162996666Y-68259104D01*
X162996666Y-68259104D02*
X162949047Y-68401961D01*
X162949047Y-68401961D02*
X162853809Y-68497200D01*
X162853809Y-68497200D02*
X162710952Y-68544819D01*
X162710952Y-68544819D02*
X162615714Y-68544819D01*
X163615714Y-67973390D02*
X163520476Y-67925771D01*
X163520476Y-67925771D02*
X163472857Y-67878152D01*
X163472857Y-67878152D02*
X163425238Y-67782914D01*
X163425238Y-67782914D02*
X163425238Y-67735295D01*
X163425238Y-67735295D02*
X163472857Y-67640057D01*
X163472857Y-67640057D02*
X163520476Y-67592438D01*
X163520476Y-67592438D02*
X163615714Y-67544819D01*
X163615714Y-67544819D02*
X163806190Y-67544819D01*
X163806190Y-67544819D02*
X163901428Y-67592438D01*
X163901428Y-67592438D02*
X163949047Y-67640057D01*
X163949047Y-67640057D02*
X163996666Y-67735295D01*
X163996666Y-67735295D02*
X163996666Y-67782914D01*
X163996666Y-67782914D02*
X163949047Y-67878152D01*
X163949047Y-67878152D02*
X163901428Y-67925771D01*
X163901428Y-67925771D02*
X163806190Y-67973390D01*
X163806190Y-67973390D02*
X163615714Y-67973390D01*
X163615714Y-67973390D02*
X163520476Y-68021009D01*
X163520476Y-68021009D02*
X163472857Y-68068628D01*
X163472857Y-68068628D02*
X163425238Y-68163866D01*
X163425238Y-68163866D02*
X163425238Y-68354342D01*
X163425238Y-68354342D02*
X163472857Y-68449580D01*
X163472857Y-68449580D02*
X163520476Y-68497200D01*
X163520476Y-68497200D02*
X163615714Y-68544819D01*
X163615714Y-68544819D02*
X163806190Y-68544819D01*
X163806190Y-68544819D02*
X163901428Y-68497200D01*
X163901428Y-68497200D02*
X163949047Y-68449580D01*
X163949047Y-68449580D02*
X163996666Y-68354342D01*
X163996666Y-68354342D02*
X163996666Y-68163866D01*
X163996666Y-68163866D02*
X163949047Y-68068628D01*
X163949047Y-68068628D02*
X163901428Y-68021009D01*
X163901428Y-68021009D02*
X163806190Y-67973390D01*
X128465626Y-116082319D02*
X128465626Y-115082319D01*
X128465626Y-115558509D02*
X129037054Y-115558509D01*
X129037054Y-116082319D02*
X129037054Y-115082319D01*
X129941816Y-115415652D02*
X129941816Y-116082319D01*
X129703721Y-115034700D02*
X129465626Y-115748985D01*
X129465626Y-115748985D02*
X130084673Y-115748985D01*
X172713333Y-65599580D02*
X172665714Y-65647200D01*
X172665714Y-65647200D02*
X172522857Y-65694819D01*
X172522857Y-65694819D02*
X172427619Y-65694819D01*
X172427619Y-65694819D02*
X172284762Y-65647200D01*
X172284762Y-65647200D02*
X172189524Y-65551961D01*
X172189524Y-65551961D02*
X172141905Y-65456723D01*
X172141905Y-65456723D02*
X172094286Y-65266247D01*
X172094286Y-65266247D02*
X172094286Y-65123390D01*
X172094286Y-65123390D02*
X172141905Y-64932914D01*
X172141905Y-64932914D02*
X172189524Y-64837676D01*
X172189524Y-64837676D02*
X172284762Y-64742438D01*
X172284762Y-64742438D02*
X172427619Y-64694819D01*
X172427619Y-64694819D02*
X172522857Y-64694819D01*
X172522857Y-64694819D02*
X172665714Y-64742438D01*
X172665714Y-64742438D02*
X172713333Y-64790057D01*
X173094286Y-64790057D02*
X173141905Y-64742438D01*
X173141905Y-64742438D02*
X173237143Y-64694819D01*
X173237143Y-64694819D02*
X173475238Y-64694819D01*
X173475238Y-64694819D02*
X173570476Y-64742438D01*
X173570476Y-64742438D02*
X173618095Y-64790057D01*
X173618095Y-64790057D02*
X173665714Y-64885295D01*
X173665714Y-64885295D02*
X173665714Y-64980533D01*
X173665714Y-64980533D02*
X173618095Y-65123390D01*
X173618095Y-65123390D02*
X173046667Y-65694819D01*
X173046667Y-65694819D02*
X173665714Y-65694819D01*
D11*
%TO.C,C4*%
X161306248Y-106130000D02*
X162728752Y-106130000D01*
X161306248Y-107950000D02*
X162728752Y-107950000D01*
%TO.C,J3*%
X155040000Y-70320000D02*
X156315000Y-70320000D01*
X156315000Y-70255000D02*
X156315000Y-70320000D01*
X156315000Y-70255000D02*
X159945000Y-70255000D01*
X156315000Y-79300000D02*
X156315000Y-79365000D01*
X156315000Y-79365000D02*
X159945000Y-79365000D01*
X159945000Y-70255000D02*
X159945000Y-70320000D01*
X159945000Y-79300000D02*
X159945000Y-79365000D01*
%TO.C,TP2*%
X151780000Y-69040000D02*
G75*
G02*
X150380000Y-69040000I-700000J0D01*
G01*
X150380000Y-69040000D02*
G75*
G02*
X151780000Y-69040000I700000J0D01*
G01*
%TO.C,C12*%
X167788748Y-114090000D02*
X169211252Y-114090000D01*
X167788748Y-115910000D02*
X169211252Y-115910000D01*
%TO.C,U2*%
X155942500Y-101030000D02*
X155142500Y-101030000D01*
X155942500Y-101030000D02*
X156742500Y-101030000D01*
X155942500Y-104150000D02*
X155142500Y-104150000D01*
X155942500Y-104150000D02*
X156742500Y-104150000D01*
X154642500Y-101080000D02*
X154402500Y-100750000D01*
X154882500Y-100750000D01*
X154642500Y-101080000D01*
G36*
X154642500Y-101080000D02*
G01*
X154402500Y-100750000D01*
X154882500Y-100750000D01*
X154642500Y-101080000D01*
G37*
%TO.C,R6*%
X148825276Y-82017500D02*
X149334724Y-82017500D01*
X148825276Y-83062500D02*
X149334724Y-83062500D01*
%TO.C,SW1*%
X137880000Y-71077500D02*
X137880000Y-71177500D01*
X137880000Y-72677500D02*
X142280000Y-72677500D01*
X142280000Y-69577500D02*
X137880000Y-69577500D01*
X142280000Y-71077500D02*
X142280000Y-71177500D01*
%TO.C,R10*%
X141412776Y-112017500D02*
X141922224Y-112017500D01*
X141412776Y-113062500D02*
X141922224Y-113062500D01*
%TO.C,TP5*%
X151780000Y-105540000D02*
G75*
G02*
X150380000Y-105540000I-700000J0D01*
G01*
X150380000Y-105540000D02*
G75*
G02*
X151780000Y-105540000I700000J0D01*
G01*
%TO.C,TP4*%
X134700000Y-71500000D02*
G75*
G02*
X133300000Y-71500000I-700000J0D01*
G01*
X133300000Y-71500000D02*
G75*
G02*
X134700000Y-71500000I700000J0D01*
G01*
%TO.C,TP6*%
X160780000Y-101540000D02*
G75*
G02*
X159380000Y-101540000I-700000J0D01*
G01*
X159380000Y-101540000D02*
G75*
G02*
X160780000Y-101540000I700000J0D01*
G01*
%TO.C,R11*%
X145057500Y-77297776D02*
X145057500Y-77807224D01*
X146102500Y-77297776D02*
X146102500Y-77807224D01*
%TO.C,SW2*%
X147330000Y-77390000D02*
X147330000Y-77290000D01*
X147330000Y-78890000D02*
X151730000Y-78890000D01*
X151730000Y-75790000D02*
X147330000Y-75790000D01*
X151730000Y-77390000D02*
X151730000Y-77290000D01*
%TO.C,J4*%
X130520000Y-61030000D02*
X130520000Y-67000000D01*
X130520000Y-67000000D02*
X143140000Y-67000000D01*
X130530000Y-64740000D02*
X131280000Y-64740000D01*
X130530000Y-66240000D02*
X130530000Y-66990000D01*
X130530000Y-66990000D02*
X132330000Y-66990000D01*
X131280000Y-61790000D02*
X136830000Y-61790000D01*
X131280000Y-64740000D02*
X131280000Y-61790000D01*
X132330000Y-66240000D02*
X130530000Y-66240000D01*
X132330000Y-66990000D02*
X132330000Y-66240000D01*
X133830000Y-66240000D02*
X133830000Y-66990000D01*
X133830000Y-66990000D02*
X139830000Y-66990000D01*
X139830000Y-66240000D02*
X133830000Y-66240000D01*
X139830000Y-66990000D02*
X139830000Y-66240000D01*
X141330000Y-66240000D02*
X141330000Y-66990000D01*
X141330000Y-66990000D02*
X143130000Y-66990000D01*
X142180000Y-67290000D02*
X143430000Y-67290000D01*
X142380000Y-61790000D02*
X136830000Y-61790000D01*
X142380000Y-64740000D02*
X142380000Y-61790000D01*
X143130000Y-64740000D02*
X142380000Y-64740000D01*
X143130000Y-66240000D02*
X141330000Y-66240000D01*
X143130000Y-66990000D02*
X143130000Y-66240000D01*
X143140000Y-61030000D02*
X130520000Y-61030000D01*
X143140000Y-67000000D02*
X143140000Y-61030000D01*
X143430000Y-67290000D02*
X143430000Y-66040000D01*
%TO.C,C10*%
X145306248Y-105230000D02*
X146728752Y-105230000D01*
X145306248Y-107050000D02*
X146728752Y-107050000D01*
%TO.C,TP1*%
X145200000Y-113500000D02*
G75*
G02*
X143800000Y-113500000I-700000J0D01*
G01*
X143800000Y-113500000D02*
G75*
G02*
X145200000Y-113500000I700000J0D01*
G01*
%TO.C,R2*%
X129832776Y-68477500D02*
X130342224Y-68477500D01*
X129832776Y-69522500D02*
X130342224Y-69522500D01*
%TO.C,D5*%
X152470000Y-80805000D02*
X152470000Y-82275000D01*
X152470000Y-82275000D02*
X154930000Y-82275000D01*
X154930000Y-80805000D02*
X152470000Y-80805000D01*
%TO.C,C1*%
X128280000Y-106530000D02*
X129280000Y-106530000D01*
X128780000Y-106030000D02*
X128780000Y-107030000D01*
X129520000Y-105744437D02*
X129520000Y-107530000D01*
X129520000Y-105744437D02*
X130584437Y-104680000D01*
X129520000Y-112335563D02*
X129520000Y-110550000D01*
X129520000Y-112335563D02*
X130584437Y-113400000D01*
X130584437Y-104680000D02*
X138240000Y-104680000D01*
X130584437Y-113400000D02*
X138240000Y-113400000D01*
X138240000Y-104680000D02*
X138240000Y-107530000D01*
X138240000Y-113400000D02*
X138240000Y-110550000D01*
%TO.C,C5*%
X161756248Y-109305000D02*
X162278752Y-109305000D01*
X161756248Y-110775000D02*
X162278752Y-110775000D01*
%TO.C,R8*%
X141912776Y-80017500D02*
X142422224Y-80017500D01*
X141912776Y-81062500D02*
X142422224Y-81062500D01*
%TO.C,A1*%
X162980000Y-83440000D02*
X162980000Y-84840000D01*
X162980000Y-86110000D02*
X162980000Y-104020000D01*
X162980000Y-104020000D02*
X178480000Y-104020000D01*
X164380000Y-83440000D02*
X162980000Y-83440000D01*
X165650000Y-83440000D02*
X165650000Y-86110000D01*
X165650000Y-86110000D02*
X162980000Y-86110000D01*
X165650000Y-86110000D02*
X165650000Y-104020000D01*
X175810000Y-83440000D02*
X175810000Y-104020000D01*
X178480000Y-83440000D02*
X165650000Y-83440000D01*
X178480000Y-104020000D02*
X178480000Y-83440000D01*
%TO.C,C11*%
X167806248Y-111590000D02*
X169228752Y-111590000D01*
X167806248Y-113410000D02*
X169228752Y-113410000D01*
%TO.C,L1*%
X161457258Y-112480000D02*
X162277742Y-112480000D01*
X161457258Y-113600000D02*
X162277742Y-113600000D01*
%TO.C,C9*%
X167806248Y-109090000D02*
X169228752Y-109090000D01*
X167806248Y-110910000D02*
X169228752Y-110910000D01*
%TO.C,C7*%
X155431248Y-104730000D02*
X156853752Y-104730000D01*
X155431248Y-106550000D02*
X156853752Y-106550000D01*
%TO.C,J2*%
X146020000Y-61030000D02*
X146020000Y-67000000D01*
X146020000Y-67000000D02*
X156140000Y-67000000D01*
X146030000Y-64740000D02*
X146780000Y-64740000D01*
X146030000Y-66240000D02*
X146030000Y-66990000D01*
X146030000Y-66990000D02*
X147830000Y-66990000D01*
X146780000Y-61790000D02*
X151080000Y-61790000D01*
X146780000Y-64740000D02*
X146780000Y-61790000D01*
X147830000Y-66240000D02*
X146030000Y-66240000D01*
X147830000Y-66990000D02*
X147830000Y-66240000D01*
X149330000Y-66240000D02*
X149330000Y-66990000D01*
X149330000Y-66990000D02*
X152830000Y-66990000D01*
X152830000Y-66240000D02*
X149330000Y-66240000D01*
X152830000Y-66990000D02*
X152830000Y-66240000D01*
X154330000Y-66240000D02*
X154330000Y-66990000D01*
X154330000Y-66990000D02*
X156130000Y-66990000D01*
X155180000Y-67290000D02*
X156430000Y-67290000D01*
X155380000Y-61790000D02*
X151080000Y-61790000D01*
X155380000Y-64740000D02*
X155380000Y-61790000D01*
X156130000Y-64740000D02*
X155380000Y-64740000D01*
X156130000Y-66240000D02*
X154330000Y-66240000D01*
X156130000Y-66990000D02*
X156130000Y-66240000D01*
X156140000Y-61030000D02*
X146020000Y-61030000D01*
X156140000Y-67000000D02*
X156140000Y-61030000D01*
X156430000Y-67290000D02*
X156430000Y-66040000D01*
%TO.C,A2*%
X122980000Y-81640000D02*
X122980000Y-83040000D01*
X122980000Y-84310000D02*
X122980000Y-102220000D01*
X122980000Y-102220000D02*
X138480000Y-102220000D01*
X124380000Y-81640000D02*
X122980000Y-81640000D01*
X125650000Y-81640000D02*
X125650000Y-84310000D01*
X125650000Y-84310000D02*
X122980000Y-84310000D01*
X125650000Y-84310000D02*
X125650000Y-102220000D01*
X135810000Y-81640000D02*
X135810000Y-102220000D01*
X138480000Y-81640000D02*
X125650000Y-81640000D01*
X138480000Y-102220000D02*
X138480000Y-81640000D01*
%TO.C,R4*%
X153745276Y-83477500D02*
X154254724Y-83477500D01*
X153745276Y-84522500D02*
X154254724Y-84522500D01*
%TO.C,R3*%
X129832776Y-70977500D02*
X130342224Y-70977500D01*
X129832776Y-72022500D02*
X130342224Y-72022500D01*
%TO.C,R12*%
X143557500Y-71294724D02*
X143557500Y-70785276D01*
X144602500Y-71294724D02*
X144602500Y-70785276D01*
%TO.C,TP3*%
X134700000Y-69000000D02*
G75*
G02*
X133300000Y-69000000I-700000J0D01*
G01*
X133300000Y-69000000D02*
G75*
G02*
X134700000Y-69000000I700000J0D01*
G01*
%TO.C,C6*%
X167868748Y-106130000D02*
X169291252Y-106130000D01*
X167868748Y-107950000D02*
X169291252Y-107950000D01*
%TO.C,TP7*%
X141780000Y-106040000D02*
G75*
G02*
X140380000Y-106040000I-700000J0D01*
G01*
X140380000Y-106040000D02*
G75*
G02*
X141780000Y-106040000I700000J0D01*
G01*
%TO.C,C8*%
X151728752Y-101230000D02*
X150306248Y-101230000D01*
X151728752Y-103050000D02*
X150306248Y-103050000D01*
%TO.C,J6*%
X165230000Y-75790000D02*
X165230000Y-77040000D01*
X165520000Y-76080000D02*
X165520000Y-82050000D01*
X165520000Y-82050000D02*
X178140000Y-82050000D01*
X165530000Y-76090000D02*
X165530000Y-76840000D01*
X165530000Y-76840000D02*
X167330000Y-76840000D01*
X165530000Y-78340000D02*
X166280000Y-78340000D01*
X166280000Y-78340000D02*
X166280000Y-81290000D01*
X166280000Y-81290000D02*
X171830000Y-81290000D01*
X166480000Y-75790000D02*
X165230000Y-75790000D01*
X167330000Y-76090000D02*
X165530000Y-76090000D01*
X167330000Y-76840000D02*
X167330000Y-76090000D01*
X168830000Y-76090000D02*
X168830000Y-76840000D01*
X168830000Y-76840000D02*
X174830000Y-76840000D01*
X174830000Y-76090000D02*
X168830000Y-76090000D01*
X174830000Y-76840000D02*
X174830000Y-76090000D01*
X176330000Y-76090000D02*
X176330000Y-76840000D01*
X176330000Y-76840000D02*
X178130000Y-76840000D01*
X177380000Y-78340000D02*
X177380000Y-81290000D01*
X177380000Y-81290000D02*
X171830000Y-81290000D01*
X178130000Y-76090000D02*
X176330000Y-76090000D01*
X178130000Y-76840000D02*
X178130000Y-76090000D01*
X178130000Y-78340000D02*
X177380000Y-78340000D01*
X178140000Y-76080000D02*
X165520000Y-76080000D01*
X178140000Y-82050000D02*
X178140000Y-76080000D01*
%TO.C,R7*%
X156557500Y-82794724D02*
X156557500Y-82285276D01*
X157602500Y-82794724D02*
X157602500Y-82285276D01*
%TO.C,R1*%
X160422224Y-93517500D02*
X159912776Y-93517500D01*
X160422224Y-94562500D02*
X159912776Y-94562500D01*
%TO.C,D1*%
X159330000Y-92775000D02*
X161790000Y-92775000D01*
X161790000Y-91305000D02*
X159330000Y-91305000D01*
X161790000Y-92775000D02*
X161790000Y-91305000D01*
%TO.C,D2*%
X140545000Y-81805000D02*
X140545000Y-83275000D01*
X140545000Y-83275000D02*
X143005000Y-83275000D01*
X143005000Y-81805000D02*
X140545000Y-81805000D01*
%TO.C,SW3*%
X158530000Y-81340000D02*
X158530000Y-85740000D01*
X160030000Y-81340000D02*
X160130000Y-81340000D01*
X160030000Y-85740000D02*
X160130000Y-85740000D01*
X161630000Y-85740000D02*
X161630000Y-81340000D01*
%TO.C,D4*%
X140045000Y-109305000D02*
X140045000Y-110775000D01*
X140045000Y-110775000D02*
X142505000Y-110775000D01*
X142505000Y-109305000D02*
X140045000Y-109305000D01*
%TO.C,U1*%
X144970000Y-87105000D02*
X144970000Y-88055000D01*
X144970000Y-97325000D02*
X144970000Y-96375000D01*
X145920000Y-87105000D02*
X144970000Y-87105000D01*
X145920000Y-97325000D02*
X144970000Y-97325000D01*
X154240000Y-87105000D02*
X155190000Y-87105000D01*
X154240000Y-97325000D02*
X155190000Y-97325000D01*
X155190000Y-87105000D02*
X155190000Y-88055000D01*
X155190000Y-97325000D02*
X155190000Y-96375000D01*
X144355000Y-88055000D02*
X144015000Y-87585000D01*
X144695000Y-87585000D01*
X144355000Y-88055000D01*
G36*
X144355000Y-88055000D02*
G01*
X144015000Y-87585000D01*
X144695000Y-87585000D01*
X144355000Y-88055000D01*
G37*
%TO.C,J7*%
X123150000Y-74250000D02*
X123150000Y-75500000D01*
X123440000Y-74540000D02*
X123440000Y-80510000D01*
X123440000Y-80510000D02*
X136060000Y-80510000D01*
X123450000Y-74550000D02*
X123450000Y-75300000D01*
X123450000Y-75300000D02*
X125250000Y-75300000D01*
X123450000Y-76800000D02*
X124200000Y-76800000D01*
X124200000Y-76800000D02*
X124200000Y-79750000D01*
X124200000Y-79750000D02*
X129750000Y-79750000D01*
X124400000Y-74250000D02*
X123150000Y-74250000D01*
X125250000Y-74550000D02*
X123450000Y-74550000D01*
X125250000Y-75300000D02*
X125250000Y-74550000D01*
X126750000Y-74550000D02*
X126750000Y-75300000D01*
X126750000Y-75300000D02*
X132750000Y-75300000D01*
X132750000Y-74550000D02*
X126750000Y-74550000D01*
X132750000Y-75300000D02*
X132750000Y-74550000D01*
X134250000Y-74550000D02*
X134250000Y-75300000D01*
X134250000Y-75300000D02*
X136050000Y-75300000D01*
X135300000Y-76800000D02*
X135300000Y-79750000D01*
X135300000Y-79750000D02*
X129750000Y-79750000D01*
X136050000Y-74550000D02*
X134250000Y-74550000D01*
X136050000Y-75300000D02*
X136050000Y-74550000D01*
X136050000Y-76800000D02*
X135300000Y-76800000D01*
X136060000Y-74540000D02*
X123440000Y-74540000D01*
X136060000Y-80510000D02*
X136060000Y-74540000D01*
%TO.C,U4*%
X145500000Y-101440000D02*
X144700000Y-101440000D01*
X145500000Y-101440000D02*
X146300000Y-101440000D01*
X145500000Y-104560000D02*
X144700000Y-104560000D01*
X145500000Y-104560000D02*
X146300000Y-104560000D01*
X144200000Y-101490000D02*
X143960000Y-101160000D01*
X144440000Y-101160000D01*
X144200000Y-101490000D01*
G36*
X144200000Y-101490000D02*
G01*
X143960000Y-101160000D01*
X144440000Y-101160000D01*
X144200000Y-101490000D01*
G37*
%TO.C,J1*%
X146230000Y-107790000D02*
X146230000Y-109040000D01*
X146520000Y-108080000D02*
X146520000Y-114050000D01*
X146520000Y-114050000D02*
X156640000Y-114050000D01*
X146530000Y-108090000D02*
X146530000Y-108840000D01*
X146530000Y-108840000D02*
X148330000Y-108840000D01*
X146530000Y-110340000D02*
X147280000Y-110340000D01*
X147280000Y-110340000D02*
X147280000Y-113290000D01*
X147280000Y-113290000D02*
X151580000Y-113290000D01*
X147480000Y-107790000D02*
X146230000Y-107790000D01*
X148330000Y-108090000D02*
X146530000Y-108090000D01*
X148330000Y-108840000D02*
X148330000Y-108090000D01*
X149830000Y-108090000D02*
X149830000Y-108840000D01*
X149830000Y-108840000D02*
X153330000Y-108840000D01*
X153330000Y-108090000D02*
X149830000Y-108090000D01*
X153330000Y-108840000D02*
X153330000Y-108090000D01*
X154830000Y-108090000D02*
X154830000Y-108840000D01*
X154830000Y-108840000D02*
X156630000Y-108840000D01*
X155880000Y-110340000D02*
X155880000Y-113290000D01*
X155880000Y-113290000D02*
X151580000Y-113290000D01*
X156630000Y-108090000D02*
X154830000Y-108090000D01*
X156630000Y-108840000D02*
X156630000Y-108090000D01*
X156630000Y-110340000D02*
X155880000Y-110340000D01*
X156640000Y-108080000D02*
X146520000Y-108080000D01*
X156640000Y-114050000D02*
X156640000Y-108080000D01*
%TO.C,J8*%
X159520000Y-61030000D02*
X159520000Y-67000000D01*
X159520000Y-67000000D02*
X167140000Y-67000000D01*
X159530000Y-64740000D02*
X160280000Y-64740000D01*
X159530000Y-66240000D02*
X159530000Y-66990000D01*
X159530000Y-66990000D02*
X161330000Y-66990000D01*
X160280000Y-61790000D02*
X163330000Y-61790000D01*
X160280000Y-64740000D02*
X160280000Y-61790000D01*
X161330000Y-66240000D02*
X159530000Y-66240000D01*
X161330000Y-66990000D02*
X161330000Y-66240000D01*
X162830000Y-66240000D02*
X162830000Y-66990000D01*
X162830000Y-66990000D02*
X163830000Y-66990000D01*
X163830000Y-66240000D02*
X162830000Y-66240000D01*
X163830000Y-66990000D02*
X163830000Y-66240000D01*
X165330000Y-66240000D02*
X165330000Y-66990000D01*
X165330000Y-66990000D02*
X167130000Y-66990000D01*
X166180000Y-67290000D02*
X167430000Y-67290000D01*
X166380000Y-61790000D02*
X163330000Y-61790000D01*
X166380000Y-64740000D02*
X166380000Y-61790000D01*
X167130000Y-64740000D02*
X166380000Y-64740000D01*
X167130000Y-66240000D02*
X165330000Y-66240000D01*
X167130000Y-66990000D02*
X167130000Y-66240000D01*
X167140000Y-61030000D02*
X159520000Y-61030000D01*
X167140000Y-67000000D02*
X167140000Y-61030000D01*
X167430000Y-67290000D02*
X167430000Y-66040000D01*
%TO.C,C2*%
X167280000Y-68030000D02*
X168280000Y-68030000D01*
X167780000Y-67530000D02*
X167780000Y-68530000D01*
X168520000Y-67244437D02*
X168520000Y-69030000D01*
X168520000Y-67244437D02*
X169584437Y-66180000D01*
X168520000Y-73835563D02*
X168520000Y-72050000D01*
X168520000Y-73835563D02*
X169584437Y-74900000D01*
X169584437Y-66180000D02*
X177240000Y-66180000D01*
X169584437Y-74900000D02*
X177240000Y-74900000D01*
X177240000Y-66180000D02*
X177240000Y-69030000D01*
X177240000Y-74900000D02*
X177240000Y-72050000D01*
%TD*%
M02*
